<svg width="278" height="278" viewBox="0 0 278 278" fill="none" xmlns="http://www.w3.org/2000/svg">
<path d="M251.279 161.118C252.005 157.499 253.198 153.989 254.826 150.676C259.274 141.569 262.471 133.601 259.641 123.432C252.708 98.5955 224.507 95.6931 210.596 76.9615C189.09 48.0161 136.248 45.503 111.006 70.5175C103.266 78.1847 99.641 89.0156 91.8181 96.5994C80.2922 107.781 63.1785 109.221 51.3413 120.368C32.0425 138.555 30.1688 169.374 47.2992 189.824C65.3914 211.419 90.9285 207.877 115.732 203.285C127.936 201.027 140.624 198.581 153.061 200.316C179.588 204.052 211.063 218.625 236.773 204.119C250.467 196.39 250.817 184.336 250.5 170.275C250.423 167.203 250.684 164.132 251.279 161.118Z" fill="#FFCF00"/>
<path opacity="0.6" d="M251.279 161.118C252.005 157.499 253.198 153.989 254.826 150.676C259.274 141.569 262.471 133.601 259.641 123.432C252.708 98.5955 224.507 95.6931 210.596 76.9615C189.09 48.0161 136.248 45.503 111.006 70.5175C103.266 78.1847 99.641 89.0156 91.8181 96.5994C80.2922 107.781 63.1785 109.221 51.3413 120.368C32.0425 138.555 30.1688 169.374 47.2992 189.824C65.3914 211.419 90.9285 207.877 115.732 203.285C127.936 201.027 140.624 198.581 153.061 200.316C179.588 204.052 211.063 218.625 236.773 204.119C250.467 196.39 250.817 184.336 250.5 170.275C250.423 167.203 250.684 164.132 251.279 161.118Z" fill="white"/>
<path d="M143.17 236.856C201.974 236.856 249.644 226.774 249.644 214.338C249.644 201.902 201.974 191.82 143.17 191.82C84.3658 191.82 36.6958 201.902 36.6958 214.338C36.6958 226.774 84.3658 236.856 143.17 236.856Z" fill="#FFCF00"/>
<path opacity="0.3" d="M143.17 236.856C201.974 236.856 249.644 226.774 249.644 214.338C249.644 201.902 201.974 191.82 143.17 191.82C84.3658 191.82 36.6958 201.902 36.6958 214.338C36.6958 226.774 84.3658 236.856 143.17 236.856Z" fill="white"/>
<path d="M21.7119 63.4618C21.5822 62.9927 21.5526 62.5015 21.6252 62.0202C21.6977 61.539 21.8707 61.0783 22.1328 60.6683C22.395 60.2582 22.7406 59.9079 23.147 59.6401C23.5534 59.3723 24.0117 59.193 24.4919 59.1139C27.3998 58.7191 30.9693 62.6223 32.1035 64.9853C32.1981 65.191 33.3601 68.5603 33.3045 68.5603C33.2489 68.5603 28.1504 68.6771 26.0765 67.7541C24.2584 66.9702 22.1956 65.4745 21.7119 63.4618ZM96.3938 54.488C95.9657 56.5118 93.9419 58.0631 92.1738 58.8971C90.4057 59.7311 86.2079 59.8756 85.1793 59.8923C84.6233 60.5539 84.0284 61.2712 83.389 62.0718C82.277 63.4952 81.0427 65.1131 79.8195 66.9591C79.4914 67.4539 79.1578 67.9932 78.8242 68.5159C79.5693 67.7541 80.5979 66.7255 80.7091 66.6366C82.7607 65.0075 87.6757 63.0559 90.1166 64.6795C90.5149 64.9596 90.8498 65.3205 91.0994 65.7386C91.3491 66.1567 91.5079 66.6227 91.5656 67.1062C91.6233 67.5898 91.5785 68.08 91.4342 68.5451C91.29 69.0102 91.0494 69.4398 90.7282 69.8058C89.4105 71.4071 86.9029 71.8519 84.9458 71.774C82.9887 71.6962 79.08 69.8336 78.246 69.4166C77.5287 70.5786 76.8171 71.7907 76.1499 73.0973C74.9076 75.4526 73.8786 77.9144 73.0752 80.4532L73.2253 80.5255C73.8202 79.7415 75.1157 78.1235 75.238 78.0068C77.0951 76.1553 81.771 73.6811 84.3787 75.0211C84.8004 75.2574 85.1683 75.5792 85.4586 75.9659C85.7489 76.3525 85.9554 76.7955 86.0648 77.2664C86.1741 77.7374 86.184 78.226 86.0938 78.701C86.0035 79.176 85.8152 79.627 85.5407 80.0251C84.4287 81.7653 81.9656 82.4826 80.0141 82.616C77.7901 82.7773 73.1141 81.0203 72.9362 80.948C72.2146 83.4913 71.6575 86.0783 71.2682 88.6931C70.9679 90.628 70.74 92.5851 70.5287 94.5811C70.9346 94.0251 72.6359 91.8957 72.7527 91.7567C74.6097 89.9107 79.2857 87.431 81.8878 88.7765C82.3147 89.0115 82.6874 89.3337 82.9815 89.7223C83.2755 90.1109 83.4845 90.5571 83.5946 91.0318C83.7048 91.5065 83.7137 91.9991 83.6208 92.4775C83.5279 92.9559 83.3352 93.4093 83.0554 93.8083C81.9434 95.543 79.4803 96.2603 77.5287 96.3937C75.3325 96.5494 70.8567 94.8869 70.4898 94.7257C70.3953 95.6264 70.3007 96.5216 70.2118 97.4279C69.9227 100.369 69.6558 103.327 69.2888 106.235C69.1609 107.241 69.0053 108.231 68.8496 109.221C69.4834 108.398 70.6621 106.924 70.7789 106.808C72.6359 104.962 77.3119 102.482 79.9195 103.827C80.342 104.063 80.7104 104.385 81.0012 104.771C81.2921 105.158 81.4988 105.601 81.6083 106.072C81.7177 106.543 81.7274 107.032 81.6367 107.507C81.546 107.983 81.3569 108.434 81.0816 108.831C79.9696 110.566 77.5065 111.283 75.5549 111.422C73.6034 111.561 69.8115 110.244 68.7495 109.854C68.4771 111.522 68.1935 113.129 67.7932 114.714C67.6153 115.398 67.4818 116.104 67.2705 116.749L66.7145 118.689C66.2697 120.001 65.8639 121.219 65.4191 122.431C65.1967 123.043 64.9798 123.615 64.7574 124.21C65.2745 123.276 66.1196 121.82 66.2086 121.692C67.7654 119.584 72.0077 116.432 74.7877 117.366C75.2454 117.533 75.6629 117.794 76.0127 118.133C76.3626 118.472 76.637 118.881 76.818 119.334C76.9991 119.786 77.0826 120.271 77.0633 120.758C77.044 121.245 76.9222 121.722 76.7059 122.159C75.8496 124.049 73.5422 125.128 71.6296 125.556C69.5279 126.034 65.0132 125.117 64.4627 125C63.9067 126.451 63.3507 127.852 62.8281 129.159C61.1601 133.29 59.5755 136.67 58.4468 139.022L58.2633 139.4H66.4866L63.6454 194.778C63.5676 196.825 62.6981 198.762 61.2202 200.181C59.7422 201.6 57.7712 202.39 55.7224 202.384C53.6935 202.385 51.7416 201.607 50.2702 200.21C48.7987 198.813 47.9202 196.904 47.8161 194.878L44.9749 139.5H53.8042C53.7597 139.117 53.7153 138.711 53.6652 138.255C53.3705 135.697 52.8924 132.039 52.1251 127.691C51.9083 126.434 51.6581 125.106 51.3801 123.743C50.8241 123.816 46.2537 124.394 44.191 123.743C42.3228 123.187 40.0988 121.92 39.3871 119.974C39.2047 119.522 39.1194 119.037 39.1367 118.551C39.154 118.064 39.2735 117.587 39.4874 117.149C39.7014 116.712 40.005 116.325 40.3786 116.012C40.7521 115.7 41.1873 115.47 41.6556 115.337C44.4968 114.608 48.4944 118.078 49.89 120.291C49.9789 120.435 50.8407 122.231 51.2633 123.16C51.0965 122.337 50.9353 121.519 50.7462 120.663C50.4793 119.434 50.1902 118.144 49.8622 116.888C49.6843 116.243 49.5008 115.592 49.3062 114.936C49.1116 114.28 48.8892 113.658 48.6835 113.001C48.361 112.056 47.9773 111.094 47.5715 110.132C46.3371 110.477 42.6898 111.417 40.8161 111.144C38.9423 110.872 36.4904 109.966 35.4951 108.153C35.2457 107.734 35.0873 107.268 35.0302 106.784C34.9732 106.299 35.0188 105.809 35.1641 105.343C35.3094 104.878 35.5512 104.449 35.8736 104.083C36.196 103.717 36.5918 103.424 37.0353 103.221C39.7319 102.07 44.2077 104.889 45.9313 106.874C45.9869 106.935 46.3093 107.391 46.6819 107.936C46.2815 107.013 45.8868 106.085 45.4531 105.156C44.2188 102.532 42.8788 99.8909 41.5611 97.2444C41.2831 96.6884 41.0051 96.1324 40.7382 95.5764C39.6985 95.8711 35.7342 96.9275 33.7938 96.6439C31.8533 96.3603 29.4681 95.4652 28.4729 93.6471C28.2276 93.2284 28.0728 92.763 28.0186 92.2808C27.9643 91.7986 28.0119 91.3104 28.1581 90.8478C28.3042 90.3851 28.5459 89.9582 28.8673 89.5948C29.1887 89.2313 29.5828 88.9393 30.0241 88.7376C32.7207 87.5922 37.1965 90.4056 38.9201 92.3961C38.9813 92.4628 39.3649 93.0077 39.7819 93.6248C39.0813 92.1737 38.3975 90.7225 37.7636 89.2547C36.669 86.7497 35.7403 84.1754 34.9836 81.5485C34.6222 81.6541 30.0241 82.9885 27.839 82.6605C25.9041 82.3825 23.5189 81.4818 22.5237 79.6692C22.274 79.2508 22.1153 78.7844 22.0579 78.3006C22.0005 77.8167 22.0456 77.3262 22.1904 76.8609C22.3352 76.3957 22.5763 75.9661 22.8981 75.6003C23.22 75.2344 23.6152 74.9404 24.0582 74.7375C26.7604 73.5921 31.2362 76.4055 32.9542 78.3904C33.0765 78.535 34.4332 80.5143 34.8947 81.2427C34.8922 81.2112 34.8922 81.1796 34.8947 81.1482C34.2146 78.5485 33.7681 75.8932 33.5603 73.2141C33.3559 70.8235 33.289 68.4232 33.3601 66.025C33.4157 63.801 33.5992 61.766 33.7771 59.9701C33.8827 58.9971 33.9939 58.1075 34.1107 57.2791L34.0607 57.3125C34.0106 57.3458 33.0321 53.9209 32.9931 53.6985C32.5595 51.1131 33.2489 45.87 35.851 44.5189C36.2901 44.3073 36.7689 44.1904 37.2561 44.1759C37.7434 44.1613 38.2282 44.2495 38.6792 44.4346C39.1302 44.6197 39.5371 44.8976 39.8737 45.2503C40.2102 45.6029 40.4688 46.0225 40.6326 46.4816C41.3887 48.4109 40.5547 50.8184 39.5206 52.4919C38.4864 54.1655 35.0726 56.5952 34.2386 57.179C34.1385 58.0408 34.0384 58.9638 33.9495 59.959C33.8105 61.7549 33.6715 63.7843 33.6659 66.0027C33.6659 66.5977 33.6659 67.2315 33.6937 67.8487C33.8939 66.8034 34.1885 65.38 34.2497 65.241C35.0559 62.7501 38.0805 58.4133 41.0162 58.4189C41.5032 58.4331 41.9817 58.5496 42.4206 58.761C42.8595 58.9723 43.249 59.2738 43.5637 59.6456C43.8784 60.0175 44.1113 60.4515 44.2471 60.9193C44.383 61.3871 44.4188 61.8784 44.3522 62.3609C44.1409 64.4237 42.2895 66.1751 40.6159 67.1926C38.9423 68.2101 34.6333 68.8383 33.7104 68.944C33.7549 70.3117 33.8271 71.724 33.9939 73.1696C34.2577 75.8181 34.7563 78.4379 35.484 80.9981H35.6508C35.7175 80.0139 35.9066 77.9512 35.9399 77.7788C36.4959 75.2157 38.9979 70.5508 41.9169 70.2561C42.4025 70.2169 42.8909 70.2804 43.3502 70.4424C43.8096 70.6045 44.2297 70.8614 44.5833 71.1966C44.9368 71.5317 45.2157 71.9375 45.402 72.3876C45.5883 72.8377 45.6777 73.322 45.6644 73.809C45.6644 75.8773 44.0353 77.8289 42.4841 79.0187C40.6937 80.392 35.8454 81.4929 35.6619 81.5318C36.4539 84.0566 37.4105 86.5268 38.5253 88.9266C39.3427 90.7058 40.2378 92.4795 41.1552 94.2475C41.1886 93.5525 41.4332 90.8448 41.4721 90.6502C42.0281 88.0871 44.5301 83.4222 47.4491 83.122C47.9345 83.0836 48.4225 83.1477 48.8815 83.3101C49.3405 83.4724 49.7602 83.7294 50.1136 84.0644C50.4669 84.3994 50.7459 84.8048 50.9324 85.2545C51.119 85.7042 51.209 86.1881 51.1966 86.6748C51.1966 88.7487 49.5619 90.6947 48.0107 91.8845C46.2649 93.2245 41.6278 94.3031 41.2331 94.3921C41.6501 95.1927 42.0671 95.9989 42.4896 96.7996C43.8741 99.4183 45.2696 102.032 46.5818 104.656C47.0321 105.568 47.4436 106.48 47.8606 107.391C47.9329 106.352 48.1108 104.472 48.1386 104.311C48.6946 101.748 51.2021 97.0831 54.1156 96.7829C54.6011 96.7437 55.0895 96.8072 55.5489 96.9692C56.0083 97.1312 56.4284 97.3882 56.7819 97.7233C57.1354 98.0585 57.4144 98.4643 57.6006 98.9144C57.7869 99.3645 57.8763 99.8488 57.863 100.336C57.863 102.41 56.2339 104.356 54.6827 105.545C53.1315 106.735 49.2395 107.731 48.1441 107.997C48.828 109.532 49.4841 111.033 50.0401 112.568C50.2681 113.235 50.5405 113.897 50.724 114.547L51.3133 116.488C51.6636 117.827 51.9972 119.067 52.2975 120.324C52.4531 120.958 52.581 121.558 52.7256 122.17C52.6422 121.113 52.5421 119.429 52.5477 119.273C52.6867 116.66 54.4825 111.684 57.3181 110.933C57.7923 110.821 58.2849 110.81 58.7636 110.9C59.2424 110.991 59.6967 111.182 60.0969 111.46C60.4972 111.738 60.8343 112.097 61.0865 112.514C61.3386 112.931 61.5001 113.396 61.5604 113.88C61.5996 114.134 61.6163 114.39 61.6105 114.647C62.7522 116.647 63.3628 118.905 63.3841 121.208C63.3841 121.375 63.1117 123.349 62.9504 124.355C63.2673 123.577 63.5787 122.804 63.8901 121.992C64.3515 120.819 64.7963 119.568 65.2411 118.356L65.8639 116.426C66.0863 115.776 66.2197 115.131 66.4199 114.469C66.6756 113.502 66.8869 112.484 67.0982 111.478C65.8805 111.078 62.3166 109.854 60.9043 108.592C59.4921 107.33 57.952 105.223 58.1243 103.16C58.1482 102.674 58.274 102.198 58.4937 101.763C58.7133 101.329 59.0219 100.945 59.3994 100.637C59.7768 100.329 60.2147 100.104 60.6847 99.9769C61.1547 99.8493 61.6463 99.8219 62.1275 99.8965C65.0132 100.452 67.1927 105.251 67.5263 107.847C67.5263 107.931 67.5541 108.487 67.5652 109.148C67.7431 108.159 67.9266 107.163 68.0712 106.151C68.4937 103.283 68.8273 100.341 69.1832 97.4001C69.2555 96.7829 69.3389 96.1713 69.4111 95.5597C68.3825 95.2317 64.5128 93.9417 63.0338 92.6185C61.5549 91.2952 60.0815 89.2491 60.2538 87.1863C60.276 86.6993 60.4007 86.2224 60.6198 85.7869C60.8389 85.3514 61.1475 84.967 61.5253 84.659C61.9032 84.3509 62.3418 84.1261 62.8126 83.9992C63.2833 83.8723 63.7755 83.8462 64.257 83.9226C67.1427 84.4786 69.3166 89.2769 69.6558 91.8734C69.6558 91.9624 69.6558 92.6296 69.6947 93.3746C69.906 91.7733 70.1395 90.1887 70.4231 88.6153C70.8844 85.9096 71.529 83.2383 72.3524 80.62C71.9854 80.5088 67.4207 79.0854 65.7749 77.6176C64.3126 76.311 62.817 74.2482 62.9949 72.1855C63.017 71.6984 63.1418 71.2216 63.3609 70.786C63.58 70.3505 63.8886 69.9662 64.2664 69.6581C64.6443 69.35 65.0829 69.1252 65.5537 68.9983C66.0244 68.8714 66.5166 68.8453 66.9981 68.9217C69.8782 69.4777 72.0577 74.276 72.3969 76.8725C72.3969 77.056 72.458 79.4579 72.4413 80.3197C72.4413 80.2864 72.4413 80.253 72.4691 80.2252C73.3379 77.6818 74.4301 75.2202 75.7329 72.8693C76.8897 70.759 78.1669 68.717 79.5581 66.7533C80.8314 64.9241 82.1046 63.3339 83.25 61.9328C83.8727 61.1767 84.4565 60.4983 85.0069 59.8701H84.9458C84.8902 59.8701 85.9633 56.4673 86.0578 56.2616C87.1253 53.8708 90.5892 49.8732 93.5026 50.1845C93.9879 50.2507 94.4536 50.4188 94.8692 50.6778C95.2848 50.9368 95.6409 51.2809 95.914 51.6874C96.1871 52.0939 96.3711 52.5536 96.4538 53.0363C96.5365 53.519 96.516 54.0137 96.3938 54.488ZM62.7614 124.878C62.261 124.638 58.419 122.737 56.9178 121.108C55.6185 121.816 54.278 122.445 52.9035 122.993C53.2427 124.505 53.5651 125.978 53.8376 127.363C54.7049 131.744 55.2665 135.425 55.6223 138.01C55.6946 138.566 55.7613 139.05 55.8169 139.5H56.0115L56.6565 138.249C57.8185 135.953 59.4365 132.639 61.2046 128.581C61.7161 127.413 62.2387 126.167 62.7614 124.878ZM78.1292 68.8884C78.1737 68.8884 79.0633 65.469 79.0967 65.241C79.4581 62.6501 78.6296 57.4237 75.9886 56.1449C75.5436 55.9454 75.0617 55.8418 74.5741 55.8409C74.0864 55.8399 73.6041 55.9416 73.1583 56.1393C72.7125 56.337 72.3134 56.6263 71.9868 56.9884C71.6602 57.3505 71.4135 57.7773 71.2626 58.241C70.5565 60.187 71.4572 62.5722 72.5192 64.2124C73.7646 66.164 78.1237 68.8884 78.1292 68.8884Z" fill="#FFCF00"/>
<path opacity="0.3" d="M21.7119 63.4618C21.5822 62.9927 21.5526 62.5015 21.6252 62.0202C21.6977 61.539 21.8707 61.0783 22.1328 60.6683C22.395 60.2582 22.7406 59.9079 23.147 59.6401C23.5534 59.3723 24.0117 59.193 24.4919 59.1139C27.3998 58.7191 30.9693 62.6223 32.1035 64.9853C32.1981 65.191 33.3601 68.5603 33.3045 68.5603C33.2489 68.5603 28.1504 68.6771 26.0765 67.7541C24.2584 66.9702 22.1956 65.4745 21.7119 63.4618ZM96.3938 54.488C95.9657 56.5118 93.9419 58.0631 92.1738 58.8971C90.4057 59.7311 86.2079 59.8756 85.1793 59.8923C84.6233 60.5539 84.0284 61.2712 83.389 62.0718C82.277 63.4952 81.0427 65.1131 79.8195 66.9591C79.4914 67.4539 79.1578 67.9932 78.8242 68.5159C79.5693 67.7541 80.5979 66.7255 80.7091 66.6366C82.7607 65.0075 87.6757 63.0559 90.1166 64.6795C90.5149 64.9596 90.8498 65.3205 91.0994 65.7386C91.3491 66.1567 91.5079 66.6227 91.5656 67.1062C91.6233 67.5898 91.5785 68.08 91.4342 68.5451C91.29 69.0102 91.0494 69.4398 90.7282 69.8058C89.4105 71.4071 86.9029 71.8519 84.9458 71.774C82.9887 71.6962 79.08 69.8336 78.246 69.4166C77.5287 70.5786 76.8171 71.7907 76.1499 73.0973C74.9076 75.4526 73.8786 77.9144 73.0752 80.4532L73.2253 80.5255C73.8202 79.7415 75.1157 78.1235 75.238 78.0068C77.0951 76.1553 81.771 73.6811 84.3787 75.0211C84.8004 75.2574 85.1683 75.5792 85.4586 75.9659C85.7489 76.3525 85.9554 76.7955 86.0648 77.2664C86.1741 77.7374 86.184 78.226 86.0938 78.701C86.0035 79.176 85.8152 79.627 85.5407 80.0251C84.4287 81.7653 81.9656 82.4826 80.0141 82.616C77.7901 82.7773 73.1141 81.0203 72.9362 80.948C72.2146 83.4913 71.6575 86.0783 71.2682 88.6931C70.9679 90.628 70.74 92.5851 70.5287 94.5811C70.9346 94.0251 72.6359 91.8957 72.7527 91.7567C74.6097 89.9107 79.2857 87.431 81.8878 88.7765C82.3147 89.0115 82.6874 89.3337 82.9815 89.7223C83.2755 90.1109 83.4845 90.5571 83.5946 91.0318C83.7048 91.5065 83.7137 91.9991 83.6208 92.4775C83.5279 92.9559 83.3352 93.4093 83.0554 93.8083C81.9434 95.543 79.4803 96.2603 77.5287 96.3937C75.3325 96.5494 70.8567 94.8869 70.4898 94.7257C70.3953 95.6264 70.3007 96.5216 70.2118 97.4279C69.9227 100.369 69.6558 103.327 69.2888 106.235C69.1609 107.241 69.0053 108.231 68.8496 109.221C69.4834 108.398 70.6621 106.924 70.7789 106.808C72.6359 104.962 77.3119 102.482 79.9195 103.827C80.342 104.063 80.7104 104.385 81.0012 104.771C81.2921 105.158 81.4988 105.601 81.6083 106.072C81.7177 106.543 81.7274 107.032 81.6367 107.507C81.546 107.983 81.3569 108.434 81.0816 108.831C79.9696 110.566 77.5065 111.283 75.5549 111.422C73.6034 111.561 69.8115 110.244 68.7495 109.854C68.4771 111.522 68.1935 113.129 67.7932 114.714C67.6153 115.398 67.4818 116.104 67.2705 116.749L66.7145 118.689C66.2697 120.001 65.8639 121.219 65.4191 122.431C65.1967 123.043 64.9798 123.615 64.7574 124.21C65.2745 123.276 66.1196 121.82 66.2086 121.692C67.7654 119.584 72.0077 116.432 74.7877 117.366C75.2454 117.533 75.6629 117.794 76.0127 118.133C76.3626 118.472 76.637 118.881 76.818 119.334C76.9991 119.786 77.0826 120.271 77.0633 120.758C77.044 121.245 76.9222 121.722 76.7059 122.159C75.8496 124.049 73.5422 125.128 71.6296 125.556C69.5279 126.034 65.0132 125.117 64.4627 125C63.9067 126.451 63.3507 127.852 62.8281 129.159C61.1601 133.29 59.5755 136.67 58.4468 139.022L58.2633 139.4H66.4866L63.6454 194.778C63.5676 196.825 62.6981 198.762 61.2202 200.181C59.7422 201.6 57.7712 202.39 55.7224 202.384C53.6935 202.385 51.7416 201.607 50.2702 200.21C48.7987 198.813 47.9202 196.904 47.8161 194.878L44.9749 139.5H53.8042C53.7597 139.117 53.7153 138.711 53.6652 138.255C53.3705 135.697 52.8924 132.039 52.1251 127.691C51.9083 126.434 51.6581 125.106 51.3801 123.743C50.8241 123.816 46.2537 124.394 44.191 123.743C42.3228 123.187 40.0988 121.92 39.3871 119.974C39.2047 119.522 39.1194 119.037 39.1367 118.551C39.154 118.064 39.2735 117.587 39.4874 117.149C39.7014 116.712 40.005 116.325 40.3786 116.012C40.7521 115.7 41.1873 115.47 41.6556 115.337C44.4968 114.608 48.4944 118.078 49.89 120.291C49.9789 120.435 50.8407 122.231 51.2633 123.16C51.0965 122.337 50.9353 121.519 50.7462 120.663C50.4793 119.434 50.1902 118.144 49.8622 116.888C49.6843 116.243 49.5008 115.592 49.3062 114.936C49.1116 114.28 48.8892 113.658 48.6835 113.001C48.361 112.056 47.9773 111.094 47.5715 110.132C46.3371 110.477 42.6898 111.417 40.8161 111.144C38.9423 110.872 36.4904 109.966 35.4951 108.153C35.2457 107.734 35.0873 107.268 35.0302 106.784C34.9732 106.299 35.0188 105.809 35.1641 105.343C35.3094 104.878 35.5512 104.449 35.8736 104.083C36.196 103.717 36.5918 103.424 37.0353 103.221C39.7319 102.07 44.2077 104.889 45.9313 106.874C45.9869 106.935 46.3093 107.391 46.6819 107.936C46.2815 107.013 45.8868 106.085 45.4531 105.156C44.2188 102.532 42.8788 99.8909 41.5611 97.2444C41.2831 96.6884 41.0051 96.1324 40.7382 95.5764C39.6985 95.8711 35.7342 96.9275 33.7938 96.6439C31.8533 96.3603 29.4681 95.4652 28.4729 93.6471C28.2276 93.2284 28.0728 92.763 28.0186 92.2808C27.9643 91.7986 28.0119 91.3104 28.1581 90.8478C28.3042 90.3851 28.5459 89.9582 28.8673 89.5948C29.1887 89.2313 29.5828 88.9393 30.0241 88.7376C32.7207 87.5922 37.1965 90.4056 38.9201 92.3961C38.9813 92.4628 39.3649 93.0077 39.7819 93.6248C39.0813 92.1737 38.3975 90.7225 37.7636 89.2547C36.669 86.7497 35.7403 84.1754 34.9836 81.5485C34.6222 81.6541 30.0241 82.9885 27.839 82.6605C25.9041 82.3825 23.5189 81.4818 22.5237 79.6692C22.274 79.2508 22.1153 78.7844 22.0579 78.3006C22.0005 77.8167 22.0456 77.3262 22.1904 76.8609C22.3352 76.3957 22.5763 75.9661 22.8981 75.6003C23.22 75.2344 23.6152 74.9404 24.0582 74.7375C26.7604 73.5921 31.2362 76.4055 32.9542 78.3904C33.0765 78.535 34.4332 80.5143 34.8947 81.2427C34.8922 81.2112 34.8922 81.1796 34.8947 81.1482C34.2146 78.5485 33.7681 75.8932 33.5603 73.2141C33.3559 70.8235 33.289 68.4232 33.3601 66.025C33.4157 63.801 33.5992 61.766 33.7771 59.9701C33.8827 58.9971 33.9939 58.1075 34.1107 57.2791L34.0607 57.3125C34.0106 57.3458 33.0321 53.9209 32.9931 53.6985C32.5595 51.1131 33.2489 45.87 35.851 44.5189C36.2901 44.3073 36.7689 44.1904 37.2561 44.1759C37.7434 44.1613 38.2282 44.2495 38.6792 44.4346C39.1302 44.6197 39.5371 44.8976 39.8737 45.2503C40.2102 45.6029 40.4688 46.0225 40.6326 46.4816C41.3887 48.4109 40.5547 50.8184 39.5206 52.4919C38.4864 54.1655 35.0726 56.5952 34.2386 57.179C34.1385 58.0408 34.0384 58.9638 33.9495 59.959C33.8105 61.7549 33.6715 63.7843 33.6659 66.0027C33.6659 66.5977 33.6659 67.2315 33.6937 67.8487C33.8939 66.8034 34.1885 65.38 34.2497 65.241C35.0559 62.7501 38.0805 58.4133 41.0162 58.4189C41.5032 58.4331 41.9817 58.5496 42.4206 58.761C42.8595 58.9723 43.249 59.2738 43.5637 59.6456C43.8784 60.0175 44.1113 60.4515 44.2471 60.9193C44.383 61.3871 44.4188 61.8784 44.3522 62.3609C44.1409 64.4237 42.2895 66.1751 40.6159 67.1926C38.9423 68.2101 34.6333 68.8383 33.7104 68.944C33.7549 70.3117 33.8271 71.724 33.9939 73.1696C34.2577 75.8181 34.7563 78.4379 35.484 80.9981H35.6508C35.7175 80.0139 35.9066 77.9512 35.9399 77.7788C36.4959 75.2157 38.9979 70.5508 41.9169 70.2561C42.4025 70.2169 42.8909 70.2804 43.3502 70.4424C43.8096 70.6045 44.2297 70.8614 44.5833 71.1966C44.9368 71.5317 45.2157 71.9375 45.402 72.3876C45.5883 72.8377 45.6777 73.322 45.6644 73.809C45.6644 75.8773 44.0353 77.8289 42.4841 79.0187C40.6937 80.392 35.8454 81.4929 35.6619 81.5318C36.4539 84.0566 37.4105 86.5268 38.5253 88.9266C39.3427 90.7058 40.2378 92.4795 41.1552 94.2475C41.1886 93.5525 41.4332 90.8448 41.4721 90.6502C42.0281 88.0871 44.5301 83.4222 47.4491 83.122C47.9345 83.0836 48.4225 83.1477 48.8815 83.3101C49.3405 83.4724 49.7602 83.7294 50.1136 84.0644C50.4669 84.3994 50.7459 84.8048 50.9324 85.2545C51.119 85.7042 51.209 86.1881 51.1966 86.6748C51.1966 88.7487 49.5619 90.6947 48.0107 91.8845C46.2649 93.2245 41.6278 94.3031 41.2331 94.3921C41.6501 95.1927 42.0671 95.9989 42.4896 96.7996C43.8741 99.4183 45.2696 102.032 46.5818 104.656C47.0321 105.568 47.4436 106.48 47.8606 107.391C47.9329 106.352 48.1108 104.472 48.1386 104.311C48.6946 101.748 51.2021 97.0831 54.1156 96.7829C54.6011 96.7437 55.0895 96.8072 55.5489 96.9692C56.0083 97.1312 56.4284 97.3882 56.7819 97.7233C57.1354 98.0585 57.4144 98.4643 57.6006 98.9144C57.7869 99.3645 57.8763 99.8488 57.863 100.336C57.863 102.41 56.2339 104.356 54.6827 105.545C53.1315 106.735 49.2395 107.731 48.1441 107.997C48.828 109.532 49.4841 111.033 50.0401 112.568C50.2681 113.235 50.5405 113.897 50.724 114.547L51.3133 116.488C51.6636 117.827 51.9972 119.067 52.2975 120.324C52.4531 120.958 52.581 121.558 52.7256 122.17C52.6422 121.113 52.5421 119.429 52.5477 119.273C52.6867 116.66 54.4825 111.684 57.3181 110.933C57.7923 110.821 58.2849 110.81 58.7636 110.9C59.2424 110.991 59.6967 111.182 60.0969 111.46C60.4972 111.738 60.8343 112.097 61.0865 112.514C61.3386 112.931 61.5001 113.396 61.5604 113.88C61.5996 114.134 61.6163 114.39 61.6105 114.647C62.7522 116.647 63.3628 118.905 63.3841 121.208C63.3841 121.375 63.1117 123.349 62.9504 124.355C63.2673 123.577 63.5787 122.804 63.8901 121.992C64.3515 120.819 64.7963 119.568 65.2411 118.356L65.8639 116.426C66.0863 115.776 66.2197 115.131 66.4199 114.469C66.6756 113.502 66.8869 112.484 67.0982 111.478C65.8805 111.078 62.3166 109.854 60.9043 108.592C59.4921 107.33 57.952 105.223 58.1243 103.16C58.1482 102.674 58.274 102.198 58.4937 101.763C58.7133 101.329 59.0219 100.945 59.3994 100.637C59.7768 100.329 60.2147 100.104 60.6847 99.9769C61.1547 99.8493 61.6463 99.8219 62.1275 99.8965C65.0132 100.452 67.1927 105.251 67.5263 107.847C67.5263 107.931 67.5541 108.487 67.5652 109.148C67.7431 108.159 67.9266 107.163 68.0712 106.151C68.4937 103.283 68.8273 100.341 69.1832 97.4001C69.2555 96.7829 69.3389 96.1713 69.4111 95.5597C68.3825 95.2317 64.5128 93.9417 63.0338 92.6185C61.5549 91.2952 60.0815 89.2491 60.2538 87.1863C60.276 86.6993 60.4007 86.2224 60.6198 85.7869C60.8389 85.3514 61.1475 84.967 61.5253 84.659C61.9032 84.3509 62.3418 84.1261 62.8126 83.9992C63.2833 83.8723 63.7755 83.8462 64.257 83.9226C67.1427 84.4786 69.3166 89.2769 69.6558 91.8734C69.6558 91.9624 69.6558 92.6296 69.6947 93.3746C69.906 91.7733 70.1395 90.1887 70.4231 88.6153C70.8844 85.9096 71.529 83.2383 72.3524 80.62C71.9854 80.5088 67.4207 79.0854 65.7749 77.6176C64.3126 76.311 62.817 74.2482 62.9949 72.1855C63.017 71.6984 63.1418 71.2216 63.3609 70.786C63.58 70.3505 63.8886 69.9662 64.2664 69.6581C64.6443 69.35 65.0829 69.1252 65.5537 68.9983C66.0244 68.8714 66.5166 68.8453 66.9981 68.9217C69.8782 69.4777 72.0577 74.276 72.3969 76.8725C72.3969 77.056 72.458 79.4579 72.4413 80.3197C72.4413 80.2864 72.4413 80.253 72.4691 80.2252C73.3379 77.6818 74.4301 75.2202 75.7329 72.8693C76.8897 70.759 78.1669 68.717 79.5581 66.7533C80.8314 64.9241 82.1046 63.3339 83.25 61.9328C83.8727 61.1767 84.4565 60.4983 85.0069 59.8701H84.9458C84.8902 59.8701 85.9633 56.4673 86.0578 56.2616C87.1253 53.8708 90.5892 49.8732 93.5026 50.1845C93.9879 50.2507 94.4536 50.4188 94.8692 50.6778C95.2848 50.9368 95.6409 51.2809 95.914 51.6874C96.1871 52.0939 96.3711 52.5536 96.4538 53.0363C96.5365 53.519 96.516 54.0137 96.3938 54.488ZM62.7614 124.878C62.261 124.638 58.419 122.737 56.9178 121.108C55.6185 121.816 54.278 122.445 52.9035 122.993C53.2427 124.505 53.5651 125.978 53.8376 127.363C54.7049 131.744 55.2665 135.425 55.6223 138.01C55.6946 138.566 55.7613 139.05 55.8169 139.5H56.0115L56.6565 138.249C57.8185 135.953 59.4365 132.639 61.2046 128.581C61.7161 127.413 62.2387 126.167 62.7614 124.878ZM78.1292 68.8884C78.1737 68.8884 79.0633 65.469 79.0967 65.241C79.4581 62.6501 78.6296 57.4237 75.9886 56.1449C75.5436 55.9454 75.0617 55.8418 74.5741 55.8409C74.0864 55.8399 73.6041 55.9416 73.1583 56.1393C72.7125 56.337 72.3134 56.6263 71.9868 56.9884C71.6602 57.3505 71.4135 57.7773 71.2626 58.241C70.5565 60.187 71.4572 62.5722 72.5192 64.2124C73.7646 66.164 78.1237 68.8884 78.1292 68.8884Z" fill="white"/>
<path d="M235.527 88.5485C235.527 88.5485 230.089 92.7074 229.339 95.91C228.588 99.1125 229.556 102.521 230.195 104.55C230.834 106.58 230.94 116.393 224.969 120.763C218.997 125.133 216.328 129.509 216.968 134.952C217.607 140.396 225.714 146.367 232.436 147.74C239.158 149.114 248.649 146.033 252.379 138.033C256.11 130.032 251.101 121.208 248.326 116.204C245.552 111.2 245.768 106.496 248.882 106.285C251.996 106.074 253.575 106.841 253.686 102.443C253.797 98.045 252.724 91.2451 247.07 87.8313C241.415 84.4174 235.527 88.5485 235.527 88.5485Z" fill="#2E353A" stroke="#2E353A" stroke-linecap="round" stroke-linejoin="round"/>
<path d="M222.139 142.203C222.695 142.575 227.699 144.616 231.402 138.867C235.105 133.118 230.062 127.819 231.035 122.743" stroke="white" stroke-width="0.5" stroke-miterlimit="10"/>
<path d="M241.61 95.165C241.61 95.165 239.875 89.5605 243.633 91.3786C247.664 93.3246 250.861 102.499 249.471 104.584" stroke="white" stroke-width="0.5" stroke-miterlimit="10"/>
<path d="M240.575 94.4366C240.575 94.4366 238.49 90.4056 239.88 88.5986C241.27 86.7916 244.467 88.8766 246.135 90.1276" stroke="white" stroke-width="0.5" stroke-miterlimit="10"/>
<path d="M245.301 105.418C245.301 105.418 245.857 107.92 244.189 112.924C242.521 117.928 239.463 123.627 242.521 128.909C245.579 134.191 247.942 137.805 244.467 143.087" stroke="white" stroke-width="0.5" stroke-miterlimit="10"/>
<path d="M245.302 108.337C245.422 111.596 245.189 114.858 244.607 118.067C243.634 123.627 246.692 127.241 249.889 130.716C253.086 134.191 252.252 137.11 251.14 140.307" stroke="white" stroke-width="0.5" stroke-miterlimit="10"/>
<path d="M240.436 95.2706C240.436 95.2706 233.903 95.8266 231.957 94.9926C230.011 94.1586 230.428 93.4636 230.428 93.4636" stroke="white" stroke-width="0.5" stroke-miterlimit="10"/>
<path d="M241.304 117.477C241.304 117.477 242.155 126.117 243.244 131.116C244.334 136.114 246.069 142.425 245.635 144.165C245.202 145.906 235.627 160.69 235.627 160.69L232.803 158.732L238.674 141.118L233.731 124.605C233.731 124.605 238.257 117.972 241.304 117.477Z" fill="white" stroke="#2E353A" stroke-linecap="round" stroke-linejoin="round"/>
<path d="M240.542 116.071C239.152 114.469 236.166 110.31 236.166 110.31L231.474 104.75L224.969 95.7932C224.112 94.6201 221.232 95.0426 212.914 95.1538C204.597 95.265 179.349 90.4612 179.349 90.4612L178.498 96.0212C178.498 96.0212 201.605 101.025 207.471 101.581C213.337 102.137 218.78 102.86 218.78 102.86C217.979 104.456 217.266 106.095 216.645 107.769C216.006 109.688 208.539 119.929 208.539 119.929C208.539 119.929 208.355 120.04 208.038 120.252C207.955 122.109 208.133 126.051 210.907 128.13C213.053 129.737 216.195 130.415 218.463 130.699C218.502 130.571 218.536 130.46 218.563 130.382C218.886 129.526 221.232 128.247 222.511 128.158C223.79 128.069 227.737 128.264 230.089 128.052C232.441 127.841 233.714 124.639 233.714 124.639C233.714 124.639 238.896 119.579 241.282 117.511C241.134 116.986 240.882 116.496 240.542 116.071Z" fill="white" stroke="#2E353A" stroke-linecap="round" stroke-linejoin="round"/>
<path d="M221.733 104.15L218.78 102.843L220.926 106.257" stroke="#2E353A" stroke-width="0.75" stroke-linecap="round" stroke-linejoin="round"/>
<path d="M214.288 123.577C216.51 124.955 219.139 125.526 221.733 125.195" stroke="#2E353A" stroke-width="0.75" stroke-linecap="round" stroke-linejoin="round"/>
<path d="M211.836 119.69C211.836 119.69 212.32 121.636 215.4 122.932" stroke="#2E353A" stroke-width="0.75" stroke-linecap="round" stroke-linejoin="round"/>
<path d="M238.657 141.118C238.657 141.118 240.676 140.251 242.293 142.519" stroke="#2E353A" stroke-width="0.75" stroke-linecap="round" stroke-linejoin="round"/>
<path d="M239.219 126.006L233.715 124.605L238.569 128.436" stroke="#2E353A" stroke-width="0.75" stroke-linecap="round" stroke-linejoin="round"/>
<path d="M224.162 97.856C224.162 97.856 221.41 102.71 218.174 102.549C213.776 102.326 201.333 98.6566 201.333 97.3667C201.333 96.0768 204.736 95.5875 204.736 95.5875" stroke="#2E353A" stroke-width="0.75" stroke-linecap="round" stroke-linejoin="round"/>
<path d="M233.715 101.881C233.715 101.881 231.491 101.325 229.873 102.31C228.255 103.294 224.007 112.551 224.007 112.551C224.007 112.551 224.324 112.979 225.608 112.979C226.892 112.979 227.209 114.686 227.209 116.282C227.209 117.878 227.098 118.628 227.632 118.506C228.166 118.384 231.368 117.227 232.008 117.655C232.647 118.083 231.151 120.213 231.452 120.435C231.752 120.658 234.437 117.978 235.294 115.098C236.15 112.217 237.001 107.953 236.784 106.246C236.567 104.539 235.188 102.304 233.715 101.881Z" fill="#FFCF00" stroke="#2E353A" stroke-linecap="round" stroke-linejoin="round"/>
<path d="M235.527 110.739C234.353 112.049 233.107 113.295 231.797 114.469C229.339 116.693 227.315 118.311 227.421 117.249C227.527 116.187 229.979 110.422 230.618 107.241C231.257 104.061 232.436 101.904 233.715 101.904C234.994 101.904 237.768 108.42 235.527 110.739Z" fill="white" stroke="#2E353A" stroke-linecap="round" stroke-linejoin="round"/>
<path d="M234.248 96.9775C234.334 97.2372 234.473 97.4759 234.657 97.6781C234.841 97.8803 235.065 98.0413 235.316 98.1506C236.061 98.3619 241.61 95.1649 241.61 95.1649C241.61 95.1649 245.557 103.588 244.912 104.867C244.268 106.146 242.355 107.753 240.22 109.243C238.085 110.733 234.143 111.912 232.647 111.055C231.151 110.199 232.219 101.459 232.219 101.459C232.219 101.459 231.046 100.069 232.325 97.8282C233.603 95.5875 234.248 96.9775 234.248 96.9775Z" fill="white" stroke="#2E353A" stroke-linecap="round" stroke-linejoin="round"/>
<path d="M243.183 105.679C243.183 105.679 243.278 105.017 242.043 105.017C240.809 105.017 238.641 107.286 238.641 107.286" stroke="#2E353A" stroke-width="0.75" stroke-linecap="round" stroke-linejoin="round"/>
<path d="M237.79 107.475L237.128 106.813" stroke="#2E353A" stroke-width="0.75" stroke-linecap="round" stroke-linejoin="round"/>
<path d="M236.856 108.709C236.856 108.709 235.155 108.426 234.871 106.246" stroke="#2E353A" stroke-width="0.75" stroke-linecap="round" stroke-linejoin="round"/>
<path d="M240.792 102.243C240.792 102.243 240.37 100.169 238.568 99.7686" stroke="#2E353A" stroke-width="0.75" stroke-linecap="round" stroke-linejoin="round"/>
<path d="M238.652 103.355C238.218 103.694 237.74 103.805 237.579 103.599C237.417 103.394 237.634 102.954 238.062 102.615C238.491 102.276 238.974 102.165 239.136 102.371C239.297 102.576 239.08 103.016 238.652 103.355Z" fill="#2E353A"/>
<path d="M241.332 106.858C240.976 107.136 240.581 107.23 240.448 107.058C240.314 106.885 240.492 106.502 240.848 106.24C241.204 105.979 241.599 105.873 241.732 106.04C241.865 106.207 241.688 106.574 241.332 106.858Z" fill="#2E353A"/>
<path d="M230.952 197.641L236.406 205.22C236.406 205.22 236.406 206.61 234.46 206.61C232.514 206.61 231.402 206.61 230.29 205.22C229.178 203.83 229.178 202.996 228.066 202.44C226.954 201.884 225.842 201.884 226.398 198.826C226.954 195.768 230.952 197.641 230.952 197.641Z" fill="white" stroke="#2E353A" stroke-linecap="round" stroke-linejoin="round"/>
<path d="M236.383 205.392C235.519 205.807 234.55 205.95 233.603 205.803C231.635 205.448 230.44 203.479 229.711 202.634C228.983 201.789 228.093 201.795 227.254 201.089C226.854 200.747 226.506 200.35 226.22 199.91C226.103 201.889 227.065 201.956 228.021 202.44C229.133 202.996 229.133 203.83 230.245 205.22C231.357 206.61 232.469 206.61 234.415 206.61C235.977 206.61 236.3 205.764 236.383 205.392Z" fill="white" stroke="#2E353A" stroke-linecap="round" stroke-linejoin="round"/>
<path d="M230.64 196.679C229.528 193.343 227.943 173.372 227.12 167.05C225.452 154.195 218.035 137.51 218.035 137.51L218.463 130.682C216.195 130.399 213.053 129.72 210.907 128.114C208.127 126.034 207.955 122.092 208.038 120.235C206.632 121.141 202.478 123.871 198.936 126.74C194.566 130.26 191.575 142.742 190.724 146.684C189.874 150.626 188.912 162.252 188.912 162.252C188.912 162.252 181.228 165.238 178.137 169.48C175.045 173.722 165.654 183.347 165.654 183.347L166.511 186.549C166.511 186.549 169.391 184.525 171.843 182.602C174.295 180.678 193.393 170.014 194.672 169.258C195.951 168.501 197.452 167.034 199.153 162.752C199.776 161.19 200.655 158.632 201.522 156.014L204.485 146.784L207.338 144.354C210.151 151.96 216.69 166.622 217.618 168.718C218.73 171.231 219.575 182.407 222.65 189.396C225.725 196.385 226.542 199.737 226.542 199.737C226.542 199.737 231.757 200.032 230.64 196.679Z" fill="#2E353A" stroke="#2E353A" stroke-linecap="round" stroke-linejoin="round"/>
<path d="M218.28 132L219.342 138.199" stroke="white" stroke-width="0.5" stroke-miterlimit="10"/>
<path d="M67.9319 84.1172L51.8746 220.504C51.8528 220.7 51.8866 220.899 51.972 221.077C52.0575 221.255 52.1912 221.406 52.358 221.512C52.5248 221.618 52.718 221.675 52.9156 221.677C53.1132 221.678 53.3073 221.625 53.4759 221.522L63.7952 215.172C64.4077 214.792 65.1437 214.665 65.848 214.818C66.5523 214.97 67.1698 215.39 67.5705 215.989L80.5364 235.266L85.9463 154.179L67.9319 84.1172Z" fill="#FFCF00" stroke="#2E353A" stroke-linecap="round" stroke-linejoin="round"/>
<path d="M67.8316 87.5477L53.32 217.096C53.2887 217.375 53.3396 217.658 53.4666 217.909C53.5936 218.16 53.7911 218.369 54.0348 218.509C54.2786 218.65 54.5581 218.716 54.8391 218.7C55.12 218.684 55.3901 218.586 55.6163 218.419L63.1612 212.859C63.5536 212.569 64.0011 212.362 64.4763 212.25C64.9515 212.139 65.4444 212.126 65.9248 212.212C66.4053 212.298 66.8631 212.481 67.2703 212.75C67.6776 213.019 68.0256 213.368 68.2931 213.776L77.1224 227.254C77.2181 227.404 77.3611 227.517 77.5288 227.576C77.6964 227.635 77.879 227.636 78.0473 227.579C78.2156 227.522 78.36 227.41 78.4574 227.262C78.5548 227.113 78.5996 226.936 78.5847 226.759L68.2764 87.5533C68.2657 87.5026 68.2381 87.4571 68.1981 87.4243C68.158 87.3914 68.108 87.3732 68.0563 87.3725C68.0045 87.3719 67.954 87.3889 67.9132 87.4207C67.8724 87.4526 67.8436 87.4974 67.8316 87.5477Z" fill="#FFCF00" stroke="#2E353A" stroke-linecap="round" stroke-linejoin="round"/>
<path opacity="0.6" d="M68.0322 85.6685L53.3093 217.085C53.2779 217.364 53.3289 217.647 53.4559 217.898C53.5828 218.149 53.7803 218.358 54.0241 218.498C54.2679 218.639 54.5474 218.705 54.8283 218.689C55.1092 218.673 55.3794 218.575 55.6056 218.408L63.1505 212.848C63.5429 212.558 63.9904 212.351 64.4656 212.239C64.9408 212.128 65.4337 212.115 65.9141 212.201C66.3945 212.287 66.8524 212.47 67.2596 212.739C67.6668 213.008 68.0148 213.357 68.2824 213.765L77.1117 227.243C77.2073 227.392 77.3504 227.506 77.518 227.565C77.6857 227.624 77.8682 227.625 78.0365 227.568C78.2048 227.511 78.3492 227.399 78.4466 227.251C78.544 227.102 78.5889 226.925 78.5739 226.748L68.1378 85.6685C68.1342 85.6574 68.1271 85.6477 68.1176 85.6408C68.1081 85.6339 68.0967 85.6302 68.085 85.6302C68.0733 85.6302 68.0619 85.6339 68.0524 85.6408C68.0429 85.6477 68.0358 85.6574 68.0322 85.6685Z" fill="black"/>
<path d="M65.3463 212.136C65.9304 212.146 66.5031 212.299 67.0148 212.581C67.5264 212.863 67.9614 213.266 68.2819 213.754L77.1112 227.232C77.2069 227.381 77.35 227.495 77.5176 227.554C77.6852 227.613 77.8678 227.614 78.0361 227.557C78.2044 227.5 78.3488 227.388 78.4462 227.239C78.5436 227.091 78.5884 226.914 78.5735 226.737L77.3114 209.701L65.1572 212.081C65.2218 212.093 65.2851 212.112 65.3463 212.136Z" fill="#FFCF00" stroke="#2E353A" stroke-linecap="round" stroke-linejoin="round"/>
<path opacity="0.3" d="M65.3463 212.136C65.9304 212.146 66.5031 212.299 67.0148 212.581C67.5264 212.863 67.9614 213.266 68.2819 213.754L77.1112 227.232C77.2069 227.381 77.35 227.495 77.5176 227.554C77.6852 227.613 77.8678 227.614 78.0361 227.557C78.2044 227.5 78.3488 227.388 78.4462 227.239C78.5436 227.091 78.5884 226.914 78.5735 226.737L77.3114 209.701L65.1572 212.081C65.2218 212.093 65.2851 212.112 65.3463 212.136Z" fill="black"/>
<path d="M68.2598 84.0338L80.5307 235.266L223.617 208L189.99 90.0553L68.2598 84.0338Z" fill="#2E353A" stroke="#2E353A" stroke-linecap="round" stroke-linejoin="round"/>
<path d="M74.8931 87.2975L83.322 227.271L217.874 202.807L189.512 94.0585L74.8931 87.2975Z" fill="#FFCF00" stroke="#2E353A" stroke-linecap="round" stroke-linejoin="round"/>
<path d="M83.1162 156.18L89.5158 222.528L211.769 200.299L200.41 150.431L83.1162 156.18Z" fill="white" stroke="#2E353A" stroke-linecap="round" stroke-linejoin="round"/>
<path d="M106.713 219.225L104.684 197.914" stroke="#2E353A" stroke-linecap="round" stroke-linejoin="round"/>
<path d="M125.422 215.928L123.465 198.164" stroke="#2E353A" stroke-linecap="round" stroke-linejoin="round"/>
<path d="M143.765 212.375L141.479 198.164" stroke="#2E353A" stroke-linecap="round" stroke-linejoin="round"/>
<path d="M162.663 209.134L159.944 192.193" stroke="#2E353A" stroke-linecap="round" stroke-linejoin="round"/>
<path d="M179.31 206.131L176.991 189.596" stroke="#2E353A" stroke-linecap="round" stroke-linejoin="round"/>
<path d="M195.272 203.179L191.819 183.297" stroke="#2E353A" stroke-linecap="round" stroke-linejoin="round"/>
<path d="M232.786 158.732C232.786 158.732 231.085 160.445 230.973 161.335C230.862 162.224 231.752 164.904 231.752 164.904L234.432 165.349L235.611 160.69L232.786 158.732Z" fill="white" stroke="#2E353A" stroke-linecap="round" stroke-linejoin="round"/>
<g style="mix-blend-mode:multiply" opacity="0.49">
<path d="M75.5713 125.967C75.5713 125.967 78.3958 166.617 80.9923 181.439C83.5888 196.262 88.4038 218.447 88.4038 218.447C88.4038 218.447 171.804 205.536 212.948 188.111L209.612 172.177L75.5713 125.967Z" fill="#FFCF00"/>
</g>
<path d="M71.8018 85.7741L188.934 92.0847C188.934 92.0847 200.338 126.251 211.686 145.544C223.034 164.837 241.749 163.581 241.749 163.581C241.749 163.581 198.826 187.05 165.393 199.543C130.599 212.537 100.425 214.872 100.425 214.872C100.425 214.872 72.9416 177.331 71.8018 85.7741Z" fill="#FFCF00" stroke="#2E353A" stroke-linecap="round" stroke-linejoin="round"/>
<path d="M85.2125 79.6915C83.0385 79.6915 81.4651 81.6208 80.9702 84.6454L83.1942 84.7678C83.5389 83.0219 84.2228 81.9155 85.2069 81.9155C86.3523 81.9155 87.6255 83.7558 87.6255 86.4024C87.6255 89.0489 86.3523 90.8949 85.2069 90.8949C84.912 90.8949 84.6292 91.012 84.4206 91.2206C84.2121 91.4291 84.0949 91.7119 84.0949 92.0069C84.0949 92.3018 84.2121 92.5846 84.4206 92.7932C84.6292 93.0017 84.912 93.1189 85.2069 93.1189C87.809 93.1189 89.8495 90.1665 89.8495 86.4024C89.8495 82.6383 87.8146 79.6915 85.2125 79.6915Z" fill="white" stroke="#2E353A" stroke-miterlimit="10"/>
<path d="M88.4036 88.2038C88.2971 88.5959 88.1596 88.9789 87.9922 89.3492" stroke="#2E353A" stroke-width="0.75" stroke-linecap="round" stroke-linejoin="round"/>
<path d="M82.0708 83.6447C82.0708 83.6447 82.9048 80.6311 85.3679 80.7979C87.3028 80.9314 88.8985 83.8059 88.6316 86.8806" stroke="#2E353A" stroke-width="0.75" stroke-linecap="round" stroke-linejoin="round"/>
<path d="M104.528 80.6645C102.354 80.6645 100.78 82.5938 100.286 85.6185L102.51 85.7408C102.854 83.9949 103.538 82.8885 104.522 82.8885C105.668 82.8885 106.941 84.7288 106.941 87.3754C106.941 90.022 105.668 91.8679 104.522 91.8679C104.227 91.8679 103.945 91.985 103.736 92.1936C103.528 92.4021 103.41 92.685 103.41 92.9799C103.41 93.2748 103.528 93.5577 103.736 93.7662C103.945 93.9747 104.227 94.0919 104.522 94.0919C107.124 94.0919 109.165 91.1395 109.165 87.3754C109.165 83.6113 107.136 80.6645 104.528 80.6645Z" fill="white" stroke="#2E353A" stroke-miterlimit="10"/>
<path d="M107.725 89.1768C107.618 89.5689 107.481 89.9519 107.313 90.3222" stroke="#2E353A" stroke-width="0.75" stroke-linecap="round" stroke-linejoin="round"/>
<path d="M101.392 84.6176C101.392 84.6176 102.226 81.6041 104.689 81.7709C106.624 81.9043 108.22 84.7789 107.953 87.8535" stroke="#2E353A" stroke-width="0.75" stroke-linecap="round" stroke-linejoin="round"/>
<path d="M123.855 81.6375C121.681 81.6375 120.107 83.5668 119.612 86.5914L121.836 86.7137C122.181 84.9679 122.865 83.8615 123.849 83.8615C124.994 83.8615 126.268 85.7018 126.268 88.3484C126.268 90.9949 124.994 92.8408 123.849 92.8408C123.554 92.8408 123.271 92.958 123.063 93.1665C122.854 93.3751 122.737 93.6579 122.737 93.9528C122.737 94.2478 122.854 94.5306 123.063 94.7392C123.271 94.9477 123.554 95.0648 123.849 95.0648C126.451 95.0648 128.492 92.1125 128.492 88.3484C128.492 84.5842 126.457 81.6375 123.855 81.6375Z" fill="white" stroke="#2E353A" stroke-miterlimit="10"/>
<path d="M127.046 90.1498C126.939 90.542 126.802 90.925 126.634 91.2952" stroke="#2E353A" stroke-width="0.75" stroke-linecap="round" stroke-linejoin="round"/>
<path d="M120.713 85.5906C120.713 85.5906 121.547 82.5771 124.01 82.7439C125.945 82.8774 127.541 85.7519 127.274 88.8266" stroke="#2E353A" stroke-width="0.75" stroke-linecap="round" stroke-linejoin="round"/>
<path d="M143.175 82.6105C141.001 82.6105 139.428 84.5398 138.933 87.5644L141.157 87.6868C141.502 85.9409 142.186 84.8345 143.17 84.8345C144.315 84.8345 145.588 86.6748 145.588 89.3214C145.588 91.9679 144.315 93.8139 143.17 93.8139C142.875 93.8139 142.592 93.931 142.384 94.1396C142.175 94.3481 142.058 94.631 142.058 94.9259C142.058 95.2208 142.175 95.5036 142.384 95.7122C142.592 95.9207 142.875 96.0379 143.17 96.0379C145.772 96.0379 147.812 93.0855 147.812 89.3214C147.812 85.5573 145.777 82.6105 143.175 82.6105Z" fill="white" stroke="#2E353A" stroke-miterlimit="10"/>
<path d="M146.367 91.1228C146.261 91.5149 146.123 91.8979 145.956 92.2682" stroke="#2E353A" stroke-width="0.75" stroke-linecap="round" stroke-linejoin="round"/>
<path d="M140.034 86.5636C140.034 86.5636 140.868 83.5501 143.331 83.7169C145.266 83.8503 146.862 86.7248 146.595 89.7995" stroke="#2E353A" stroke-width="0.75" stroke-linecap="round" stroke-linejoin="round"/>
<path d="M162.847 83.4723C160.673 83.4723 159.099 85.4016 158.61 88.4318L160.834 88.5541C161.184 86.8083 161.868 85.6963 162.847 85.6963C163.992 85.6963 165.271 87.5422 165.271 90.1888C165.271 92.8353 163.992 94.6757 162.847 94.6757C162.552 94.6757 162.269 94.7928 162.06 95.0014C161.852 95.2099 161.735 95.4928 161.735 95.7877C161.735 96.0826 161.852 96.3655 162.06 96.574C162.269 96.7825 162.552 96.8997 162.847 96.8997C165.454 96.8997 167.495 93.9529 167.495 90.1888C167.495 86.4247 165.454 83.4723 162.847 83.4723Z" fill="white" stroke="#2E353A" stroke-miterlimit="10"/>
<path d="M166.038 91.9902C165.933 92.3808 165.795 92.762 165.627 93.13" stroke="#2E353A" stroke-width="0.75" stroke-linecap="round" stroke-linejoin="round"/>
<path d="M159.705 87.431C159.705 87.431 160.545 84.4119 163.002 84.5787C164.943 84.7121 166.533 87.5922 166.271 90.6669" stroke="#2E353A" stroke-width="0.75" stroke-linecap="round" stroke-linejoin="round"/>
<path d="M181.746 84.512C179.572 84.512 177.998 86.4413 177.509 89.4659L179.733 89.5938C180.083 87.848 180.767 86.736 181.746 86.736C182.891 86.736 184.17 88.5819 184.17 91.2229C184.17 93.8639 182.891 95.7154 181.746 95.7154C181.451 95.7154 181.168 95.8325 180.959 96.0411C180.751 96.2496 180.634 96.5324 180.634 96.8274C180.634 97.1223 180.751 97.4051 180.959 97.6137C181.168 97.8222 181.451 97.9394 181.746 97.9394C184.353 97.9394 186.394 94.987 186.394 91.2229C186.394 87.4588 184.353 84.512 181.746 84.512Z" fill="white" stroke="#2E353A" stroke-miterlimit="10"/>
<path d="M184.937 92.9965C184.832 93.3892 184.694 93.7723 184.525 94.1419" stroke="#2E353A" stroke-width="0.75" stroke-linecap="round" stroke-linejoin="round"/>
<path d="M178.604 88.4429C178.604 88.4429 179.443 85.4238 181.901 85.5906C183.841 85.7241 185.431 88.5986 185.17 91.6733" stroke="#2E353A" stroke-width="0.75" stroke-linecap="round" stroke-linejoin="round"/>
<path d="M235.61 160.684C235.61 160.684 236.722 162.207 236.722 162.858C236.722 163.508 235.199 164.598 235.199 166.116C235.199 167.634 233.242 167.228 233.025 166.116C232.808 165.004 233.459 163.508 233.459 163.508C233.459 163.508 232.553 162.952 232.347 160.995C232.141 159.038 233.904 159.594 233.904 159.594L235.61 160.684Z" fill="white" stroke="#2E353A" stroke-linecap="round" stroke-linejoin="round"/>
<path d="M207.81 145.633C199.754 131.933 191.292 110.299 188.284 102.337L83.6056 98.095C83.5389 175.462 106.958 207.427 106.958 207.427C106.958 207.427 133.618 205.364 164.365 193.877C193.91 182.841 229.15 164.315 229.15 164.315C229.15 164.315 217.835 162.686 207.81 145.633Z" fill="white" stroke="#2E353A" stroke-linecap="round" stroke-linejoin="round"/>
<path d="M188.284 102.337L83.6055 98.095C83.6055 105.707 83.8223 112.868 84.2226 119.612L194.767 118.578C191.903 111.756 189.596 105.779 188.284 102.337Z" fill="#2E353A" stroke="#2E353A" stroke-linecap="round" stroke-linejoin="round"/>
<path d="M190.135 125.4L195.083 125.228" stroke="#2E353A" stroke-width="3" stroke-linecap="round" stroke-linejoin="round"/>
<path d="M175.59 125.895L186.426 125.523" stroke="#2E353A" stroke-width="3" stroke-linecap="round" stroke-linejoin="round"/>
<path d="M157.981 126.49L171.909 126.017" stroke="#2E353A" stroke-width="3" stroke-linecap="round" stroke-linejoin="round"/>
<path d="M140.067 127.096L154.907 126.596" stroke="#2E353A" stroke-width="3" stroke-linecap="round" stroke-linejoin="round"/>
<path d="M122.748 127.685L136.353 127.224" stroke="#2E353A" stroke-width="3" stroke-linecap="round" stroke-linejoin="round"/>
<path d="M104.5 128.308L118.116 127.841" stroke="#2E353A" stroke-width="3" stroke-linecap="round" stroke-linejoin="round"/>
<path d="M88.437 128.853L101.108 128.419" stroke="#2E353A" stroke-width="3" stroke-linecap="round" stroke-linejoin="round"/>
<path d="M86.3745 140.779L201.539 133.762" stroke="#2E353A" stroke-linecap="round" stroke-linejoin="round"/>
<path d="M104.572 139.789C104.572 139.789 106.463 170.414 126.651 204.408" stroke="#2E353A" stroke-linecap="round" stroke-linejoin="round"/>
<path d="M123.154 138.561C123.154 138.561 125.283 173.589 147.418 199.237" stroke="#2E353A" stroke-linecap="round" stroke-linejoin="round"/>
<path d="M139.979 137.527C139.979 137.527 141.091 169.775 165.972 192.949" stroke="#2E353A" stroke-linecap="round" stroke-linejoin="round"/>
<path d="M157.42 136.776C157.42 136.776 160.167 172.627 184.247 185.254" stroke="#2E353A" stroke-linecap="round" stroke-linejoin="round"/>
<path d="M175.695 135.336C175.695 135.336 177.63 162.452 202.261 177.303" stroke="#2E353A" stroke-linecap="round" stroke-linejoin="round"/>
<path d="M190.085 134.457C190.085 134.457 196.712 162.257 215.255 171.259" stroke="#2E353A" stroke-linecap="round" stroke-linejoin="round"/>
<path d="M88.8984 156.575L206.526 143.637" stroke="#2E353A" stroke-linecap="round" stroke-linejoin="round"/>
<path d="M91.9678 170.414C91.9678 170.414 117.082 169.43 211.997 151.938" stroke="#2E353A" stroke-linecap="round" stroke-linejoin="round"/>
<path d="M96.3989 185.065C96.3989 185.065 120.863 187.845 216.706 157.326" stroke="#2E353A" stroke-linecap="round" stroke-linejoin="round"/>
<path d="M101.692 197.847C101.692 197.847 122.086 204.602 222.267 161.707" stroke="#2E353A" stroke-linecap="round" stroke-linejoin="round"/>
<path d="M128.819 113.229L91.1113 112.723C90.8059 112.719 90.5124 112.604 90.2854 112.399C90.0584 112.195 89.9133 111.915 89.877 111.611L89.5545 108.565C89.5356 108.389 89.5542 108.212 89.6089 108.044C89.6637 107.877 89.7535 107.722 89.8723 107.592C89.9911 107.462 90.1362 107.358 90.298 107.288C90.4599 107.218 90.6348 107.183 90.8111 107.186L128.063 107.831C128.338 107.835 128.604 107.931 128.82 108.101C129.036 108.272 129.19 108.509 129.259 108.776L130.015 111.673C130.062 111.856 130.067 112.047 130.029 112.233C129.991 112.418 129.912 112.592 129.797 112.743C129.681 112.893 129.533 113.014 129.364 113.099C129.195 113.183 129.008 113.228 128.819 113.229Z" fill="white"/>
<path d="M172.041 97.6598C184.643 95.6344 193.218 83.7761 191.192 71.1736C189.167 58.571 177.309 49.9965 164.706 52.0219C152.104 54.0473 143.529 65.9055 145.554 78.5081C147.58 91.1107 159.438 99.6852 172.041 97.6598Z" fill="#263238"/>
<path d="M168.579 78.9999L160.875 89.3178C160.613 89.7473 160.253 90.1021 159.827 90.3502C159.401 90.5984 158.922 90.7321 158.434 90.7393C157.765 90.7488 157.119 90.4822 156.637 89.9973C156.393 89.763 156.199 89.4763 156.07 89.1569C155.94 88.8375 155.879 88.4927 155.889 88.1462C155.913 87.3701 156.175 86.6226 156.637 86.0139L165.42 74.6806L157.184 63.3396C156.801 62.8074 156.591 62.1616 156.585 61.4963C156.583 61.0995 156.66 60.7066 156.811 60.3423C156.961 59.978 157.183 59.6502 157.461 59.3796C157.722 59.0951 158.036 58.8688 158.384 58.7144C158.731 58.56 159.105 58.4807 159.483 58.4814C159.966 58.4896 160.44 58.6239 160.861 58.8722C161.282 59.1205 161.637 59.4749 161.893 59.9029L169.336 70.127L176.823 60.0748C177.09 59.6058 177.465 59.2129 177.913 58.9309C178.361 58.6489 178.868 58.4864 179.391 58.458C179.715 58.4571 180.036 58.526 180.334 58.6604C180.631 58.7948 180.899 58.9918 181.12 59.239C181.356 59.4708 181.544 59.7503 181.673 60.0606C181.802 60.3708 181.868 60.7052 181.869 61.0433C181.861 61.6482 181.661 62.2333 181.3 62.7069L172.488 74.4698L181 86.1857C181.403 86.7094 181.627 87.3579 181.637 88.029C181.639 88.4171 181.561 88.8011 181.407 89.1544C181.253 89.5077 181.028 89.822 180.746 90.0754C180.197 90.6265 179.464 90.9344 178.702 90.9346C178.216 90.9283 177.739 90.7948 177.315 90.5465C176.891 90.2981 176.534 89.9428 176.276 89.5131L168.579 78.9999Z" fill="white"/>
</svg>
