<svg width="14" height="14" viewBox="0 0 14 14" fill="none" xmlns="http://www.w3.org/2000/svg">
<path d="M7 14C3.1346 14 0 10.8654 0 7C0 3.1346 3.1346 0 7 0C10.8654 0 14 3.1346 14 7C14 10.8654 10.8654 14 7 14Z" fill="url(#paint0_linear_17_941)"/>
<path d="M7.0003 3.0828C8.2757 3.0828 8.4269 3.087 8.9309 3.1108C9.3971 3.1318 9.6505 3.2102 9.8185 3.276C10.0411 3.3628 10.2007 3.4664 10.3673 3.633C10.5339 3.7996 10.6375 3.9592 10.7243 4.1818C10.7901 4.3498 10.8671 4.6032 10.8895 5.0694C10.9119 5.5734 10.9175 5.7246 10.9175 7C10.9175 8.2754 10.9133 8.4266 10.8895 8.9306C10.8685 9.3968 10.7901 9.6502 10.7243 9.8182C10.6375 10.0408 10.5339 10.2004 10.3673 10.367C10.2007 10.5336 10.0411 10.6372 9.8185 10.724C9.6505 10.7898 9.3971 10.8668 8.9309 10.8892C8.4269 10.9116 8.2757 10.9172 7.0003 10.9172C5.7249 10.9172 5.5737 10.913 5.0697 10.8892C4.6035 10.8682 4.3501 10.7898 4.1821 10.724C3.9595 10.6372 3.7999 10.5336 3.6333 10.367C3.4667 10.2004 3.3631 10.0408 3.2763 9.8182C3.2105 9.6502 3.1335 9.3968 3.1111 8.9306C3.0887 8.4266 3.0831 8.2754 3.0831 7C3.0831 5.7246 3.0873 5.5734 3.1111 5.0694C3.1321 4.6032 3.2105 4.3498 3.2763 4.1818C3.3631 3.9592 3.4667 3.7996 3.6333 3.633C3.7999 3.4664 3.9595 3.3628 4.1821 3.276C4.3501 3.2102 4.6035 3.1332 5.0697 3.1108C5.5737 3.087 5.7249 3.0828 7.0003 3.0828ZM7.0003 2.2218C5.7025 2.2218 5.5401 2.2274 5.0305 2.2512C4.5223 2.275 4.1751 2.3548 3.8699 2.4738C3.5563 2.5942 3.2889 2.758 3.0243 3.024C2.7583 3.29 2.5959 3.556 2.4727 3.871C2.3551 4.1748 2.2739 4.522 2.2501 5.0316C2.2263 5.5412 2.2207 5.7036 2.2207 7.0014C2.2207 8.2992 2.2263 8.4616 2.2501 8.9712C2.2739 9.4794 2.3537 9.8266 2.4727 10.1318C2.5945 10.444 2.7583 10.7114 3.0243 10.976C3.2903 11.242 3.5563 11.4044 3.8713 11.5276C4.1751 11.6452 4.5223 11.7264 5.0319 11.7502C5.5415 11.774 5.7039 11.7796 7.0017 11.7796C8.2995 11.7796 8.4619 11.774 8.9715 11.7502C9.4797 11.7264 9.8269 11.6466 10.1321 11.5276C10.4443 11.4058 10.7117 11.242 10.9763 10.976C11.2423 10.71 11.4047 10.444 11.5279 10.129C11.6455 9.8252 11.7267 9.478 11.7505 8.9684C11.7743 8.4588 11.7799 8.2964 11.7799 6.9986C11.7799 5.7008 11.7743 5.5384 11.7505 5.0288C11.7267 4.5206 11.6469 4.1734 11.5279 3.8682C11.4061 3.556 11.2423 3.2886 10.9763 3.024C10.7103 2.758 10.4443 2.5956 10.1293 2.4724C9.8255 2.3548 9.4783 2.2736 8.9687 2.2498C8.4605 2.2274 8.2981 2.2218 7.0003 2.2218Z" fill="white"/>
<path d="M7.0001 4.5458C5.6449 4.5458 4.5459 5.6448 4.5459 7C4.5459 8.3552 5.6449 9.4542 7.0001 9.4542C8.3553 9.4542 9.4543 8.3552 9.4543 7C9.4543 5.6448 8.3553 4.5458 7.0001 4.5458ZM7.0001 8.5932C6.1209 8.5932 5.4069 7.8806 5.4069 7C5.4069 6.1194 6.1209 5.4068 7.0001 5.4068C7.8793 5.4068 8.5933 6.1194 8.5933 7C8.5933 7.8806 7.8793 8.5932 7.0001 8.5932Z" fill="white"/>
<path d="M9.55154 5.0232C9.86855 5.0232 10.1255 4.76621 10.1255 4.4492C10.1255 4.13219 9.86855 3.8752 9.55154 3.8752C9.23453 3.8752 8.97754 4.13219 8.97754 4.4492C8.97754 4.76621 9.23453 5.0232 9.55154 5.0232Z" fill="white"/>
<defs>
<linearGradient id="paint0_linear_17_941" x1="2.05025" y1="11.9497" x2="11.9497" y2="2.05025" gradientUnits="userSpaceOnUse">
<stop stop-color="#FFD521"/>
<stop offset="0.0551048" stop-color="#FFD020"/>
<stop offset="0.1241" stop-color="#FEC01E"/>
<stop offset="0.2004" stop-color="#FCA71B"/>
<stop offset="0.2821" stop-color="#FA8316"/>
<stop offset="0.3681" stop-color="#F85510"/>
<stop offset="0.4563" stop-color="#F51E09"/>
<stop offset="0.5" stop-color="#F30005"/>
<stop offset="0.5035" stop-color="#F20007"/>
<stop offset="0.5966" stop-color="#E1003B"/>
<stop offset="0.6879" stop-color="#D30067"/>
<stop offset="0.7757" stop-color="#C70088"/>
<stop offset="0.8589" stop-color="#BF00A0"/>
<stop offset="0.9357" stop-color="#BB00AF"/>
<stop offset="1" stop-color="#B900B4"/>
</linearGradient>
</defs>
</svg>
