<svg width="308" height="308" viewBox="0 0 308 308" fill="none" xmlns="http://www.w3.org/2000/svg">
<path d="M308 235.558H0V235.712H308V235.558Z" fill="#E0E0E0"/>
<path d="M232.639 242.082H211.448V242.236H232.639V242.082Z" fill="#E0E0E0"/>
<path d="M68.4004 242.156H56.4746V242.31H68.4004V242.156Z" fill="#E0E0E0"/>
<path d="M154.616 241.798H130.444V241.952H154.616V241.798Z" fill="#E0E0E0"/>
<path d="M129.828 239.606H119.023V239.76H129.828V239.606Z" fill="#E0E0E0"/>
<path d="M261.529 239.686H228.887V239.84H261.529V239.686Z" fill="#E0E0E0"/>
<path d="M145.992 208.085H27.0483C26.1165 208.083 25.2234 207.712 24.5651 207.052C23.9068 206.393 23.5371 205.499 23.5371 204.567V37.3666C23.5452 36.4401 23.9185 35.5543 24.576 34.9015C25.2334 34.2487 26.1218 33.8816 27.0483 33.88H145.992C146.925 33.88 147.819 34.2506 148.479 34.9102C149.139 35.5698 149.509 36.4645 149.509 37.3974V204.567C149.509 205.5 149.139 206.395 148.479 207.055C147.819 207.714 146.925 208.085 145.992 208.085ZM27.0483 34.0032C26.1574 34.0048 25.3035 34.3599 24.674 34.9905C24.0446 35.6211 23.6911 36.4756 23.6911 37.3666V204.567C23.6911 205.458 24.0446 206.313 24.674 206.944C25.3035 207.574 26.1574 207.929 27.0483 207.931H145.992C146.883 207.929 147.738 207.574 148.368 206.944C148.999 206.313 149.353 205.459 149.355 204.567V37.3666C149.353 36.475 148.999 35.6205 148.368 34.9901C147.738 34.3597 146.883 34.0048 145.992 34.0032H27.0483Z" fill="#E0E0E0"/>
<path d="M279.239 208.085H160.29C159.357 208.083 158.464 207.712 157.804 207.053C157.145 206.394 156.774 205.5 156.772 204.567V37.3666C156.782 36.4396 157.157 35.5537 157.815 34.9011C158.474 34.2484 159.363 33.8816 160.29 33.88H279.239C280.165 33.8832 281.052 34.251 281.708 34.9036C282.364 35.5563 282.736 36.4412 282.744 37.3666V204.567C282.744 205.498 282.376 206.391 281.719 207.05C281.062 207.71 280.17 208.082 279.239 208.085ZM160.29 34.0032C159.398 34.0048 158.544 34.3597 157.913 34.9901C157.283 35.6205 156.928 36.475 156.926 37.3666V204.567C156.928 205.459 157.283 206.313 157.913 206.944C158.544 207.574 159.398 207.929 160.29 207.931H279.239C280.131 207.929 280.985 207.574 281.616 206.944C282.246 206.313 282.601 205.459 282.603 204.567V37.3666C282.601 36.475 282.246 35.6205 281.616 34.9901C280.985 34.3597 280.131 34.0048 279.239 34.0032H160.29Z" fill="#E0E0E0"/>
<path d="M270.615 158.454C263.038 146.916 269.955 134.516 268.804 121.678C267.652 108.841 255.455 106.044 257.765 95.1905C260.438 82.5748 253.311 70.4704 245.235 70.4704C237.16 70.4704 230.039 82.544 232.712 95.172C235.022 106.044 222.856 108.847 221.673 121.66C220.491 134.473 227.439 146.916 219.856 158.435C212.273 169.954 214.269 185.25 218.538 192.833C219.674 194.845 221.042 196.716 222.616 198.407C225.509 201.513 229.011 203.99 232.903 205.684C236.795 207.377 240.994 208.251 245.238 208.251C249.483 208.251 253.682 207.377 257.574 205.684C261.466 203.99 264.968 201.513 267.861 198.407C269.431 196.714 270.797 194.843 271.933 192.833C276.208 185.268 278.198 170.016 270.615 158.454Z" fill="#E0E0E0"/>
<path d="M245.236 167.207C245.739 167.207 246.237 167.306 246.702 167.499C247.167 167.691 247.589 167.973 247.945 168.329C248.301 168.685 248.583 169.107 248.776 169.572C248.968 170.037 249.067 170.535 249.067 171.039V235.558H241.404V171.039C241.404 170.535 241.503 170.037 241.696 169.572C241.888 169.107 242.171 168.685 242.527 168.329C242.882 167.973 243.305 167.691 243.77 167.499C244.234 167.306 244.733 167.207 245.236 167.207Z" fill="#F0F0F0"/>
<path d="M197.065 235.558H186.648V171.045C186.652 169.662 187.202 168.337 188.18 167.359C189.158 166.381 190.483 165.83 191.866 165.827C193.249 165.83 194.574 166.381 195.552 167.359C196.529 168.337 197.08 169.662 197.083 171.045L197.065 235.558Z" fill="#E0E0E0"/>
<path d="M191.847 218.156C209.595 218.156 223.983 203.768 223.983 186.02C223.983 168.271 209.595 153.883 191.847 153.883C174.098 153.883 159.71 168.271 159.71 186.02C159.71 203.768 174.098 218.156 191.847 218.156Z" fill="#F0F0F0"/>
<path d="M229.61 176.376C231.296 169.588 227.16 162.718 220.371 161.032C213.583 159.345 206.713 163.482 205.027 170.27C203.341 177.058 207.477 183.928 214.265 185.615C221.053 187.301 227.923 183.165 229.61 176.376Z" fill="#F0F0F0"/>
<path d="M173.251 167.028C173.916 162.942 171.143 159.089 167.056 158.424C162.97 157.758 159.118 160.531 158.452 164.618C157.787 168.704 160.56 172.557 164.646 173.222C168.733 173.888 172.585 171.115 173.251 167.028Z" fill="#F0F0F0"/>
<path d="M174.008 167.207C176.913 167.207 179.268 164.852 179.268 161.946C179.268 159.041 176.913 156.686 174.008 156.686C171.102 156.686 168.747 159.041 168.747 161.946C168.747 164.852 171.102 167.207 174.008 167.207Z" fill="#F0F0F0"/>
<path d="M125.664 197.052C120.667 197.796 115.891 199.619 111.668 202.393C111.631 197.514 110.738 192.888 108.447 189.149C104.96 192.543 102.133 196.941 99.8228 201.672C98.9788 192.808 96.6442 184.184 91.476 178.72C83.7328 183.593 79.7412 191.712 77.8439 200.311C74.7095 194.513 70.16 189.601 64.6184 186.032C59.8813 191.022 58.366 197.921 58.4953 204.992C53.1115 198.722 47.1363 193.831 41.3089 193.258C39.8736 203.169 42.929 212.52 46.816 219.912C49.3395 224.655 53.1095 228.619 57.7196 231.377C62.3298 234.135 67.6052 235.583 72.9775 235.565H98.2889C109.075 235.565 119.19 229.811 124.247 220.282C127.444 214.245 128.972 206.477 125.664 197.052Z" fill="#E0E0E0"/>
<path d="M118.432 69.0782C121.555 59.9183 119.048 53.3949 111.428 53.3949C106.636 53.3949 100.691 55.9636 94.901 60.1401C94.2481 57.7562 92.4062 56.3332 89.4433 56.3332C84.2258 56.3332 77.0371 60.7438 71.4007 66.9654C69.8137 65.4577 67.7129 64.6098 65.524 64.5938C60.5282 64.3104 54.4853 66.8483 49.2308 70.9694C48.9675 70.6009 48.6199 70.3007 48.217 70.0939C47.8141 69.887 47.3675 69.7796 46.9147 69.7805C44.0379 69.6203 40.1386 72.1829 38.2106 75.497C38.0935 75.7002 37.9888 75.9035 37.8779 76.113H119.948C120.194 73.2178 119.683 70.803 118.432 69.0782Z" fill="#F0F0F0"/>
<path d="M118.685 124.697C120.212 120.225 118.999 117.04 115.266 117.04C112.919 117.04 110.018 118.272 107.19 120.336C107.038 119.761 106.686 119.259 106.197 118.92C105.708 118.582 105.115 118.428 104.523 118.488C101.979 118.488 98.4677 120.644 95.708 123.687C94.9345 122.948 93.9072 122.533 92.8375 122.529C90.3735 122.387 87.4474 123.625 84.8787 125.639C84.7542 125.461 84.5895 125.315 84.3979 125.212C84.2064 125.109 83.9934 125.053 83.7761 125.048C82.3716 124.968 80.4682 126.218 79.5257 127.838L79.3594 128.134H119.449C119.616 126.934 119.345 125.713 118.685 124.697Z" fill="#F0F0F0"/>
<path d="M211.146 90.8538C210.83 90.8094 210.511 90.7868 210.191 90.7861C210.487 86.3201 208.781 83.4618 205.128 83.4618C202.497 83.4618 199.263 84.9526 195.974 87.472C196.916 78.7987 193.898 73.1623 187.06 73.1623C181.553 73.1623 174.574 76.8583 167.681 82.8089C167.065 79.4086 165.045 77.3634 161.632 77.3634C155.638 77.3634 147.119 83.6713 140.288 92.5663C139.509 91.5406 138.511 90.7023 137.366 90.1128C136.221 89.5233 134.959 89.1977 133.672 89.1598C127.968 88.7594 120.877 92.3815 114.576 98.2828C114.346 97.7852 113.982 97.3623 113.523 97.0626C113.064 96.763 112.53 96.5988 111.982 96.5888C108.859 96.367 104.59 99.6257 102.059 103.981H216.166C218.846 97.3773 216.715 91.5992 211.146 90.8538Z" fill="#F0F0F0"/>
<path d="M154 263.377C219.963 263.377 273.436 260.255 273.436 256.404C273.436 252.553 219.963 249.431 154 249.431C88.0369 249.431 34.5635 252.553 34.5635 256.404C34.5635 260.255 88.0369 263.377 154 263.377Z" fill="#F5F5F5"/>
<path d="M30.0977 92.745L170.527 112.962L189.371 131.978L30.0977 92.745Z" fill="#FFCF00"/>
<path opacity="0.6" d="M30.0977 92.745L170.527 112.962L189.371 131.978L30.0977 92.745Z" fill="white"/>
<path d="M30.0977 92.745L170.527 112.962L164.01 140.46L30.0977 92.745Z" fill="#FFCF00"/>
<path opacity="0.2" d="M30.0977 92.745L170.527 112.962L164.01 140.46L30.0977 92.745Z" fill="black"/>
<path d="M161.127 60.9101L169.277 99.1021C169.489 100.099 169.296 101.14 168.742 101.996C168.188 102.851 167.317 103.452 166.32 103.667L93.5824 119.19C92.5853 119.4 91.5455 119.207 90.6902 118.653C89.8348 118.099 89.2336 117.229 89.0179 116.233L80.8621 78.041C80.6519 77.043 80.8457 76.0024 81.401 75.1469C81.9563 74.2915 82.8279 73.6908 83.825 73.4765L156.562 57.9533C157.56 57.7431 158.601 57.9369 159.456 58.4922C160.312 59.0475 160.912 59.9191 161.127 60.9162V60.9101Z" fill="#FFCF00"/>
<path opacity="0.4" d="M161.127 60.9101L169.277 99.1021C169.489 100.099 169.296 101.14 168.742 101.996C168.188 102.851 167.317 103.452 166.32 103.667L93.5824 119.19C92.5853 119.4 91.5455 119.207 90.6902 118.653C89.8348 118.099 89.2336 117.229 89.0179 116.233L80.8621 78.041C80.6519 77.043 80.8457 76.0024 81.401 75.1469C81.9563 74.2915 82.8279 73.6908 83.825 73.4765L156.562 57.9533C157.56 57.7431 158.601 57.9369 159.456 58.4922C160.312 59.0475 160.912 59.9191 161.127 60.9162V60.9101Z" fill="black"/>
<path d="M159.335 58.4091L135.034 88.242C132.78 91.0079 129.649 92.9216 126.16 93.6665C122.671 94.4114 119.032 93.9429 115.845 92.3384L81.4785 75.0288C82.0345 74.2301 82.8736 73.6729 83.8255 73.4703L156.563 57.9471C157.512 57.7451 158.502 57.9102 159.335 58.4091Z" fill="#FFCF00"/>
<path d="M30.0977 92.745L145.924 120.274L164.01 140.46L30.0977 92.745Z" fill="#FFCF00"/>
<path opacity="0.6" d="M30.0977 92.745L145.924 120.274L164.01 140.46L30.0977 92.745Z" fill="white"/>
<path d="M72.3485 119.279L72.0371 119.811L84.9266 127.361L85.238 126.829L72.3485 119.279Z" fill="#FFCF00"/>
<path d="M90.9285 130.158L90.6172 130.69L95.2521 133.405L95.5634 132.873L90.9285 130.158Z" fill="#FFCF00"/>
<path d="M30.0977 92.745L145.924 120.274L123.409 147.409L30.0977 92.745Z" fill="#FFCF00"/>
<path d="M185.022 157.24C184.866 157.241 184.711 157.211 184.566 157.154L165.704 149.688C165.403 149.566 165.161 149.33 165.033 149.032C164.904 148.733 164.899 148.395 165.019 148.092C165.138 147.79 165.373 147.547 165.671 147.417C165.969 147.286 166.306 147.279 166.61 147.396L185.478 154.862C185.745 154.968 185.967 155.163 186.105 155.415C186.243 155.666 186.289 155.958 186.235 156.24C186.181 156.522 186.03 156.776 185.809 156.959C185.587 157.141 185.309 157.241 185.022 157.24Z" fill="#FFCF00"/>
<path opacity="0.3" d="M185.022 157.24C184.866 157.241 184.711 157.211 184.566 157.154L165.704 149.688C165.403 149.566 165.161 149.33 165.033 149.032C164.904 148.733 164.899 148.395 165.019 148.092C165.138 147.79 165.373 147.547 165.671 147.417C165.969 147.286 166.306 147.279 166.61 147.396L185.478 154.862C185.745 154.968 185.967 155.163 186.105 155.415C186.243 155.666 186.289 155.958 186.235 156.24C186.181 156.522 186.03 156.776 185.809 156.959C185.587 157.141 185.309 157.241 185.022 157.24Z" fill="black"/>
<path d="M183.907 146.423C183.752 146.422 183.6 146.391 183.457 146.331L173.324 142.296C173.172 142.237 173.034 142.149 172.917 142.037C172.799 141.924 172.706 141.79 172.64 141.641C172.575 141.492 172.54 141.332 172.537 141.169C172.534 141.007 172.564 140.846 172.623 140.694C172.683 140.543 172.772 140.406 172.885 140.289C172.998 140.172 173.134 140.079 173.283 140.015C173.432 139.951 173.593 139.917 173.755 139.915C173.918 139.913 174.079 139.944 174.229 140.004L184.363 144.021C184.666 144.14 184.91 144.375 185.041 144.675C185.171 144.974 185.178 145.312 185.059 145.616C184.972 145.852 184.815 146.056 184.609 146.2C184.403 146.344 184.158 146.422 183.907 146.423Z" fill="#FFCF00"/>
<path opacity="0.5" d="M183.907 146.423C183.752 146.422 183.6 146.391 183.457 146.331L173.324 142.296C173.172 142.237 173.034 142.149 172.917 142.037C172.799 141.924 172.706 141.79 172.64 141.641C172.575 141.492 172.54 141.332 172.537 141.169C172.534 141.007 172.564 140.846 172.623 140.694C172.683 140.543 172.772 140.406 172.885 140.289C172.998 140.172 173.134 140.079 173.283 140.015C173.432 139.951 173.593 139.917 173.755 139.915C173.918 139.913 174.079 139.944 174.229 140.004L184.363 144.021C184.666 144.14 184.91 144.375 185.041 144.675C185.171 144.974 185.178 145.312 185.059 145.616C184.972 145.852 184.815 146.056 184.609 146.2C184.403 146.344 184.158 146.422 183.907 146.423Z" fill="white"/>
<path d="M162.722 157.08C162.569 157.078 162.416 157.049 162.273 156.994L143.873 149.688C143.721 149.629 143.583 149.541 143.466 149.429C143.348 149.316 143.254 149.182 143.189 149.033C143.124 148.884 143.089 148.724 143.086 148.561C143.083 148.399 143.112 148.238 143.172 148.086C143.232 147.935 143.321 147.798 143.434 147.681C143.547 147.564 143.682 147.471 143.832 147.407C143.981 147.343 144.141 147.309 144.304 147.307C144.466 147.305 144.628 147.336 144.778 147.396L163.178 154.678C163.445 154.783 163.667 154.978 163.805 155.23C163.943 155.482 163.989 155.773 163.935 156.055C163.881 156.337 163.731 156.591 163.509 156.774C163.288 156.957 163.009 157.056 162.722 157.055V157.08Z" fill="#FFCF00"/>
<path opacity="0.3" d="M162.722 157.08C162.569 157.078 162.416 157.049 162.273 156.994L143.873 149.688C143.721 149.629 143.583 149.541 143.466 149.429C143.348 149.316 143.254 149.182 143.189 149.033C143.124 148.884 143.089 148.724 143.086 148.561C143.083 148.399 143.112 148.238 143.172 148.086C143.232 147.935 143.321 147.798 143.434 147.681C143.547 147.564 143.682 147.471 143.832 147.407C143.981 147.343 144.141 147.309 144.304 147.307C144.466 147.305 144.628 147.336 144.778 147.396L163.178 154.678C163.445 154.783 163.667 154.978 163.805 155.23C163.943 155.482 163.989 155.773 163.935 156.055C163.881 156.337 163.731 156.591 163.509 156.774C163.288 156.957 163.009 157.056 162.722 157.055V157.08Z" fill="black"/>
<path d="M229.337 101.529C230.969 104.714 232.466 107.905 233.889 111.17C235.312 114.434 236.636 117.742 237.794 121.21L238.213 122.522C238.287 122.756 238.392 123.138 238.453 123.409C238.515 123.68 238.57 123.988 238.601 124.247C238.742 125.241 238.814 126.243 238.817 127.247C238.826 129.098 238.74 130.949 238.558 132.791C238.214 136.358 237.655 139.9 236.883 143.399L233.501 143.023C233.458 139.555 233.427 136.05 233.304 132.631C233.248 130.931 233.15 129.224 232.977 127.623C232.899 126.871 232.776 126.124 232.607 125.387C232.577 125.214 232.527 125.085 232.49 124.943C232.454 124.802 232.417 124.752 232.355 124.568L231.887 123.403C230.599 120.286 229.152 117.145 227.673 114.015L223.201 104.628L229.337 101.529Z" fill="#E4897B"/>
<path d="M233.55 141.939L231.973 144.889L237.012 146.294C237.012 146.294 237.972 143.922 236.827 142.05L233.55 141.939Z" fill="#E4897B"/>
<path d="M230.045 149.14L234.677 149.509L237.012 146.294L231.973 144.889L230.045 149.14Z" fill="#E4897B"/>
<path d="M208.127 80.2402C208.06 80.6036 207.807 80.8562 207.573 80.8069C207.339 80.7576 207.21 80.4311 207.283 80.0738C207.357 79.7166 207.604 79.4578 207.838 79.5071C208.072 79.5564 208.207 79.8829 208.127 80.2402Z" fill="#263238"/>
<path d="M207.844 80.8562C207.194 81.864 206.408 82.778 205.51 83.5727C205.72 83.7959 205.975 83.9709 206.259 84.0858C206.543 84.2006 206.849 84.2526 207.154 84.238L207.844 80.8562Z" fill="#DE5753"/>
<path d="M209.84 78.5215C209.782 78.52 209.727 78.4957 209.686 78.4538C209.509 78.2513 209.287 78.0934 209.038 77.9928C208.788 77.8923 208.519 77.8518 208.251 77.8747C208.2 77.8752 208.15 77.8576 208.111 77.825C208.072 77.7924 208.045 77.7469 208.036 77.6966C208.028 77.6463 208.037 77.5945 208.063 77.5505C208.088 77.5064 208.129 77.4728 208.177 77.4558C208.52 77.4124 208.868 77.4544 209.19 77.578C209.512 77.7016 209.799 77.903 210.025 78.1642C210.065 78.2045 210.087 78.2587 210.087 78.3152C210.087 78.3716 210.065 78.4258 210.025 78.4661C210 78.4886 209.971 78.5054 209.939 78.515C209.907 78.5246 209.873 78.5268 209.84 78.5215Z" fill="#263238"/>
<path d="M218.316 85.2729C217.669 88.587 217.023 94.6484 219.339 96.8598C219.339 96.8598 218.433 100.217 212.279 100.217C205.503 100.217 209.052 96.8598 209.052 96.8598C212.748 95.979 212.643 93.2378 212.002 90.669L218.316 85.2729Z" fill="#E4897B"/>
<path d="M220.269 98.9481C220.756 97.328 221.292 95.4738 220.183 94.8886C218.951 94.2726 212.255 93.595 209.945 94.7962C207.635 95.9974 208.294 99.293 208.294 99.293L220.269 98.9481Z" fill="#263238"/>
<path d="M234.474 252.56C234.283 252.585 234.089 252.572 233.902 252.522C233.716 252.471 233.542 252.383 233.39 252.264C233.336 252.19 233.308 252.1 233.308 252.009C233.308 251.917 233.336 251.827 233.39 251.753C233.425 251.689 233.474 251.634 233.532 251.59C233.591 251.547 233.658 251.516 233.729 251.5C234.394 251.353 235.639 252.203 235.694 252.24C235.71 252.253 235.722 252.27 235.73 252.29C235.737 252.309 235.74 252.33 235.737 252.351C235.734 252.371 235.724 252.389 235.71 252.403C235.695 252.418 235.677 252.427 235.657 252.431C235.268 252.515 234.872 252.558 234.474 252.56ZM233.908 251.698H233.778C233.736 251.706 233.697 251.724 233.663 251.749C233.629 251.775 233.601 251.808 233.581 251.845C233.483 252.018 233.544 252.092 233.581 252.116C233.772 252.375 234.696 252.375 235.374 252.264C234.932 251.973 234.431 251.784 233.908 251.71V251.698Z" fill="#FFCF00"/>
<path d="M235.632 252.449H235.583C235.115 252.19 234.209 251.217 234.301 250.7C234.317 250.62 234.36 250.548 234.423 250.496C234.486 250.444 234.565 250.416 234.646 250.416C234.728 250.408 234.81 250.415 234.888 250.438C234.966 250.462 235.039 250.5 235.102 250.552C235.626 250.983 235.718 252.289 235.718 252.344C235.721 252.364 235.717 252.384 235.709 252.401C235.7 252.419 235.686 252.433 235.669 252.443C235.657 252.448 235.645 252.45 235.632 252.449ZM234.72 250.601H234.696C234.554 250.601 234.542 250.687 234.536 250.712C234.48 251.014 235.059 251.759 235.521 252.11C235.49 251.596 235.306 251.102 234.991 250.694C234.95 250.661 234.902 250.637 234.852 250.624C234.801 250.61 234.748 250.606 234.696 250.613L234.72 250.601Z" fill="#FFCF00"/>
<path d="M207.302 252.56C206.723 252.56 206.163 252.48 205.972 252.221C205.923 252.153 205.897 252.071 205.897 251.987C205.897 251.903 205.923 251.822 205.972 251.753C206.009 251.69 206.059 251.635 206.118 251.591C206.177 251.548 206.245 251.517 206.317 251.5C207.062 251.297 208.651 252.197 208.719 252.234C208.737 252.245 208.751 252.262 208.76 252.282C208.769 252.301 208.772 252.323 208.768 252.344C208.765 252.366 208.754 252.386 208.739 252.401C208.724 252.417 208.704 252.427 208.682 252.431C208.227 252.516 207.765 252.56 207.302 252.56ZM206.581 251.685C206.514 251.676 206.446 251.676 206.378 251.685C206.335 251.694 206.294 251.711 206.258 251.737C206.222 251.762 206.191 251.795 206.169 251.833C206.089 251.969 206.119 252.03 206.169 252.067C206.372 252.351 207.518 252.369 208.368 252.252C207.814 251.953 207.207 251.765 206.581 251.698V251.685Z" fill="#FFCF00"/>
<path d="M208.67 252.449H208.627C208.078 252.209 207 251.217 207.08 250.718C207.08 250.595 207.185 250.447 207.481 250.416C207.591 250.4 207.703 250.408 207.81 250.44C207.916 250.471 208.014 250.527 208.097 250.601C208.676 251.069 208.793 252.289 208.799 252.344C208.801 252.363 208.799 252.382 208.791 252.4C208.783 252.417 208.771 252.432 208.756 252.443C208.743 252.45 208.728 252.454 208.713 252.455C208.699 252.456 208.684 252.454 208.67 252.449ZM207.567 250.601H207.499C207.308 250.601 207.296 250.7 207.29 250.724C207.241 251.032 207.98 251.802 208.522 252.135C208.469 251.618 208.253 251.13 207.906 250.743C207.818 250.667 207.708 250.621 207.592 250.613L207.567 250.601Z" fill="#FFCF00"/>
<path d="M213.647 252.338H209.12L208.67 241.86H213.198L213.647 252.338Z" fill="#E4897B"/>
<path d="M240.818 252.338H236.291L234.018 241.86H238.539L240.818 252.338Z" fill="#E4897B"/>
<path d="M235.971 251.815H241.053C241.144 251.815 241.231 251.847 241.302 251.904C241.372 251.961 241.421 252.04 241.441 252.129L242.334 256.151C242.355 256.249 242.353 256.351 242.329 256.448C242.304 256.545 242.259 256.635 242.195 256.712C242.131 256.789 242.05 256.851 241.959 256.892C241.868 256.934 241.769 256.954 241.669 256.952C239.895 256.921 239.032 256.817 236.796 256.817C235.423 256.817 232.589 256.964 230.686 256.964C228.782 256.964 228.542 255.116 229.318 254.913C232.805 254.149 234.117 253.096 235.232 252.098C235.434 251.915 235.698 251.814 235.971 251.815Z" fill="#263238"/>
<path d="M209.15 251.815H214.078C214.169 251.815 214.257 251.847 214.327 251.904C214.398 251.961 214.447 252.04 214.466 252.129L215.359 256.151C215.381 256.248 215.38 256.349 215.357 256.446C215.334 256.542 215.289 256.633 215.227 256.71C215.164 256.787 215.084 256.848 214.994 256.89C214.904 256.932 214.806 256.953 214.706 256.952C212.926 256.921 210.351 256.817 208.109 256.817C205.491 256.817 203.224 256.964 200.15 256.964C198.302 256.964 197.779 255.116 198.555 254.913C202.097 254.137 204.986 254.057 208.048 252.172C208.374 251.95 208.756 251.826 209.15 251.815Z" fill="#263238"/>
<path d="M206.976 104.806C203.192 104.513 199.426 104.013 195.697 103.309C193.849 102.952 191.964 102.552 190.091 102.047C188.172 101.555 186.287 100.938 184.449 100.199C183.974 100.001 183.494 99.7858 183.019 99.5826C182.485 99.3195 181.971 99.019 181.479 98.6832C180.592 98.098 179.829 97.4882 179.071 96.8845C177.562 95.6525 176.163 94.4205 174.759 93.1577C172.005 90.6074 169.393 87.971 166.874 85.199L169.141 82.6672L178.079 89.0921C179.551 90.1516 181.042 91.1926 182.508 92.1721C183.235 92.6587 183.98 93.1146 184.664 93.5026C184.95 93.6657 185.246 93.8098 185.551 93.9338C185.915 94.0755 186.284 94.2172 186.672 94.3527C190.002 95.3779 193.406 96.1399 196.855 96.6319C200.372 97.1863 204.007 97.6422 207.518 98.0118L206.976 104.806Z" fill="#E4897B"/>
<path d="M227.439 97.8824C231.684 98.8557 235.971 111.256 235.971 111.256L227.242 117.52C227.242 117.52 224.778 111.742 222.401 106.691C219.912 101.4 223.103 96.8906 227.439 97.8824Z" fill="#FFCF00"/>
<path opacity="0.4" d="M227.439 97.8824C231.684 98.8557 235.971 111.256 235.971 111.256L227.242 117.52C227.242 117.52 224.778 111.742 222.401 106.691C219.912 101.4 223.103 96.8906 227.439 97.8824Z" fill="black"/>
<path d="M224.994 104.658L223.263 108.533C225.055 112.402 226.694 116.233 227.131 117.256C227.07 112.679 226.201 106.999 224.994 104.658Z" fill="#FFCF00"/>
<path opacity="0.6" d="M224.994 104.658L223.263 108.533C225.055 112.402 226.694 116.233 227.131 117.256C227.07 112.679 226.201 106.999 224.994 104.658Z" fill="black"/>
<path d="M202.091 98.1165C202.091 98.1165 197.274 103.556 201.82 137.232H226.022C226.195 133.536 223.86 115.389 227.439 97.8824C224.764 97.3672 222.058 97.0257 219.339 96.8598C215.913 96.6626 212.478 96.6626 209.052 96.8598C206.702 97.0966 204.375 97.5167 202.091 98.1165Z" fill="#FFCF00"/>
<path opacity="0.4" d="M202.091 98.1165C202.091 98.1165 197.274 103.556 201.82 137.232H226.022C226.195 133.536 223.86 115.389 227.439 97.8824C224.764 97.3672 222.058 97.0257 219.339 96.8598C215.913 96.6626 212.478 96.6626 209.052 96.8598C206.702 97.0966 204.375 97.5167 202.091 98.1165Z" fill="black"/>
<path d="M200.298 104.658C200.138 105.934 200.015 107.443 199.935 109.223C202.325 108.506 204.596 107.439 206.674 106.057L200.298 104.658Z" fill="#FFCF00"/>
<path opacity="0.6" d="M200.298 104.658C200.138 105.934 200.015 107.443 199.935 109.223C202.325 108.506 204.596 107.439 206.674 106.057L200.298 104.658Z" fill="black"/>
<path d="M210.671 105.336C207.431 108.207 195.062 107.917 195.062 107.917L194.655 95.942C198.832 96.537 203.046 96.8416 207.265 96.8537C214.158 96.712 214.207 102.17 210.671 105.336Z" fill="#FFCF00"/>
<path opacity="0.4" d="M210.671 105.336C207.431 108.207 195.062 107.917 195.062 107.917L194.655 95.942C198.832 96.537 203.046 96.8416 207.265 96.8537C214.158 96.712 214.207 102.17 210.671 105.336Z" fill="black"/>
<path d="M169.258 82.6918L166.178 79.0636L162.857 82.7596C162.857 82.7596 164.903 86.1969 168.149 85.6548L169.258 82.6918Z" fill="#E4897B"/>
<path d="M161.767 74.8317L160.572 79.5687L162.833 82.735L166.153 79.0636L161.767 74.8317Z" fill="#E4897B"/>
<path d="M208.67 241.866L208.904 247.262H213.432L213.198 241.866H208.67Z" fill="#CE6F64"/>
<path d="M238.545 241.866H234.018L235.188 247.262H239.716L238.545 241.866Z" fill="#CE6F64"/>
<path d="M211.392 75.768C207.332 73.92 206.051 65.7087 217.73 67.76C217.73 67.76 215.969 69.7066 219.541 70.9386C223.114 72.1706 220.127 79.7782 211.392 75.768Z" fill="#263238"/>
<path d="M220.213 81.928C219.049 86.24 218.593 88.8642 215.901 90.669C211.873 93.3794 206.865 90.2686 206.705 85.6671C206.563 81.5338 208.491 75.1335 213.142 74.2588C214.168 74.0575 215.229 74.1226 216.224 74.4479C217.218 74.7731 218.112 75.3476 218.821 76.1167C219.53 76.8858 220.031 77.8237 220.274 78.841C220.518 79.8583 220.497 80.9211 220.213 81.928Z" fill="#E4897B"/>
<path d="M217.571 69.916C220.337 71.456 224.082 72.38 223.731 74.573C223.269 77.2526 225.992 75.577 225.357 79.5626C224.945 82.1682 220.14 90.0654 216.733 89.6834C211.645 89.0674 212.292 81.3305 212.273 77.2526C212.261 74.844 212.15 66.8791 217.571 69.916Z" fill="#263238"/>
<path d="M211.663 73.3718C210.431 73.6613 208.799 80.7638 213.573 81.4167C219.061 82.1621 211.663 73.3718 211.663 73.3718Z" fill="#263238"/>
<path d="M211.787 75.8912C210.277 76.0267 206.859 74.2095 207.277 71.4745C207.277 71.456 209.44 74.6715 211.787 75.8912Z" fill="#263238"/>
<path d="M214.029 81.9834C213.565 82.9991 212.779 83.833 211.793 84.355C210.493 85.0326 209.76 84.047 210.055 82.7411C210.32 81.5707 211.318 79.8028 212.655 79.6611C213.992 79.5194 214.565 80.7514 214.029 81.9834Z" fill="#E4897B"/>
<path d="M220.805 77C221.725 76.6005 222.532 75.9789 223.154 75.1909C223.775 74.4029 224.191 73.4731 224.365 72.4847C224.365 72.4847 226.398 78.1334 220.805 77Z" fill="#263238"/>
<path d="M225.943 76.9076C225.514 76.6197 225.021 76.4426 224.507 76.392C223.993 76.3415 223.475 76.4192 222.998 76.6181C222.998 76.6181 224.895 74.1602 225.943 76.9076Z" fill="#263238"/>
<path d="M210.406 137.232C210.406 137.232 215.544 171.815 218.359 184.769C221.439 198.937 233.081 246.221 233.081 246.221H241.366C241.366 246.221 233.697 200.101 231.935 186.032C230.026 170.786 226.022 137.208 226.022 137.208L210.406 137.232Z" fill="#FFCF00"/>
<path opacity="0.5" d="M210.406 137.232C210.406 137.232 215.544 171.815 218.359 184.769C221.439 198.937 233.081 246.221 233.081 246.221H241.366C241.366 246.221 233.697 200.101 231.935 186.032C230.026 170.786 226.022 137.208 226.022 137.208L210.406 137.232Z" fill="white"/>
<path d="M231.757 243.166C231.72 243.166 232.613 246.351 232.613 246.351H241.939L241.767 243.511L231.757 243.166Z" fill="#FFCF00"/>
<path opacity="0.1" d="M231.757 243.166C231.72 243.166 232.613 246.351 232.613 246.351H241.939L241.767 243.511L231.757 243.166Z" fill="black"/>
<path d="M213.653 149.552C219.591 150.717 218.963 172.862 218.248 184.252C216.536 176.201 214.029 160.708 212.316 149.713C212.731 149.508 213.202 149.452 213.653 149.552Z" fill="#FFCF00"/>
<path opacity="0.4" d="M213.653 149.552C219.591 150.717 218.963 172.862 218.248 184.252C216.536 176.201 214.029 160.708 212.316 149.713C212.731 149.508 213.202 149.452 213.653 149.552Z" fill="white"/>
<path d="M201.819 137.232C201.819 137.232 201.203 171.063 201.69 184.868C202.201 199.221 207.234 246.221 207.234 246.221H214.897C214.897 246.221 215.18 200.058 215.513 185.964C215.889 170.595 217.743 137.232 217.743 137.232H201.819Z" fill="#FFCF00"/>
<path opacity="0.5" d="M201.819 137.232C201.819 137.232 201.203 171.063 201.69 184.868C202.201 199.221 207.234 246.221 207.234 246.221H214.897C214.897 246.221 215.18 200.058 215.513 185.964C215.889 170.595 217.743 137.232 217.743 137.232H201.819Z" fill="white"/>
<path d="M208.823 240.714C208.805 240.714 208.787 240.707 208.773 240.695C208.759 240.682 208.751 240.665 208.749 240.647C207.394 227.637 204.209 196.159 203.821 184.868C203.409 173.342 203.784 147.483 203.908 139.832C203.908 139.812 203.915 139.794 203.929 139.78C203.943 139.766 203.962 139.758 203.981 139.758C204.002 139.758 204.021 139.766 204.036 139.779C204.051 139.793 204.06 139.812 204.062 139.832C203.938 147.483 203.563 173.342 203.975 184.862C204.376 196.153 207.56 227.618 208.903 240.628C208.903 240.649 208.896 240.669 208.883 240.685C208.869 240.701 208.85 240.711 208.829 240.714H208.823Z" fill="#FFCF00"/>
<path opacity="0.4" d="M208.823 240.714C208.805 240.714 208.787 240.707 208.773 240.695C208.759 240.682 208.751 240.665 208.749 240.647C207.394 227.637 204.209 196.159 203.821 184.868C203.409 173.342 203.784 147.483 203.908 139.832C203.908 139.812 203.915 139.794 203.929 139.78C203.943 139.766 203.962 139.758 203.981 139.758C204.002 139.758 204.021 139.766 204.036 139.779C204.051 139.793 204.06 139.812 204.062 139.832C203.938 147.483 203.563 173.342 203.975 184.862C204.376 196.153 207.56 227.618 208.903 240.628C208.903 240.649 208.896 240.669 208.883 240.685C208.869 240.701 208.85 240.711 208.829 240.714H208.823Z" fill="white"/>
<path d="M205.744 243.166C205.713 243.166 206.181 246.351 206.181 246.351H215.501L215.754 243.511L205.744 243.166Z" fill="#FFCF00"/>
<path opacity="0.1" d="M205.744 243.166C205.713 243.166 206.181 246.351 206.181 246.351H215.501L215.754 243.511L205.744 243.166Z" fill="black"/>
</svg>
