<svg width="320" height="320" viewBox="0 0 320 320" fill="none" xmlns="http://www.w3.org/2000/svg">
<path d="M160 273.638C228.533 273.638 284.089 270.395 284.089 266.393C284.089 262.392 228.533 259.149 160 259.149C91.467 259.149 35.9102 262.392 35.9102 266.393C35.9102 270.395 91.467 273.638 160 273.638Z" fill="#F5F5F5"/>
<path d="M268.672 93.3248H205.888C202.576 93.3248 199.892 96.0097 199.892 99.3216V116.397C199.892 119.709 202.576 122.394 205.888 122.394H268.672C271.984 122.394 274.669 119.709 274.669 116.397V99.3216C274.669 96.0097 271.984 93.3248 268.672 93.3248Z" fill="#FFCF00"/>
<path d="M256.217 98.2273H207.174C206.594 98.2273 206.125 98.6972 206.125 99.2769V100.429C206.125 101.009 206.594 101.479 207.174 101.479H256.217C256.797 101.479 257.267 101.009 257.267 100.429V99.2769C257.267 98.6972 256.797 98.2273 256.217 98.2273Z" fill="#FFCF00"/>
<path d="M240.685 106.061H207.174C206.594 106.061 206.125 106.531 206.125 107.11V108.262C206.125 108.842 206.594 109.312 207.174 109.312H240.685C241.264 109.312 241.734 108.842 241.734 108.262V107.11C241.734 106.531 241.264 106.061 240.685 106.061Z" fill="#FFCF00"/>
<path d="M231.699 113.894H207.174C206.594 113.894 206.125 114.364 206.125 114.944V116.096C206.125 116.676 206.594 117.146 207.174 117.146H231.699C232.279 117.146 232.749 116.676 232.749 116.096V114.944C232.749 114.364 232.279 113.894 231.699 113.894Z" fill="#FFCF00"/>
<path d="M262.093 113.894H237.568C236.988 113.894 236.519 114.364 236.519 114.944V116.096C236.519 116.676 236.988 117.146 237.568 117.146H262.093C262.673 117.146 263.143 116.676 263.143 116.096V114.944C263.143 114.364 262.673 113.894 262.093 113.894Z" fill="#FFCF00"/>
<g opacity="0.5">
<path d="M256.217 98.2273H207.174C206.594 98.2273 206.125 98.6972 206.125 99.2769V100.429C206.125 101.009 206.594 101.479 207.174 101.479H256.217C256.797 101.479 257.267 101.009 257.267 100.429V99.2769C257.267 98.6972 256.797 98.2273 256.217 98.2273Z" fill="white"/>
<path d="M240.685 106.061H207.174C206.594 106.061 206.125 106.531 206.125 107.111V108.263C206.125 108.842 206.594 109.312 207.174 109.312H240.685C241.264 109.312 241.734 108.842 241.734 108.263V107.111C241.734 106.531 241.264 106.061 240.685 106.061Z" fill="white"/>
<path d="M231.699 113.895H207.174C206.594 113.895 206.125 114.364 206.125 114.944V116.096C206.125 116.676 206.594 117.146 207.174 117.146H231.699C232.279 117.146 232.749 116.676 232.749 116.096V114.944C232.749 114.364 232.279 113.895 231.699 113.895Z" fill="white"/>
<path d="M262.092 113.895H237.568C236.988 113.895 236.518 114.364 236.518 114.944V116.096C236.518 116.676 236.988 117.146 237.568 117.146H262.092C262.672 117.146 263.142 116.676 263.142 116.096V114.944C263.142 114.364 262.672 113.895 262.092 113.895Z" fill="white"/>
</g>
<path d="M218.381 86.5473H147.117C142.26 86.5473 138.323 90.4843 138.323 95.3409V120.378C138.323 125.234 142.26 129.171 147.117 129.171H218.381C223.237 129.171 227.174 125.234 227.174 120.378V95.3409C227.174 90.4843 223.237 86.5473 218.381 86.5473Z" fill="#FFCF00"/>
<path d="M220.902 93.7344H149.005C148.153 93.7344 147.462 94.425 147.462 95.2768V96.96C147.462 97.8119 148.153 98.5024 149.005 98.5024H220.902C221.754 98.5024 222.445 97.8119 222.445 96.96V95.2768C222.445 94.425 221.754 93.7344 220.902 93.7344Z" fill="#FFCF00"/>
<path d="M198.125 105.222H149.005C148.153 105.222 147.462 105.913 147.462 106.765V108.448C147.462 109.3 148.153 109.99 149.005 109.99H198.125C198.977 109.99 199.667 109.3 199.667 108.448V106.765C199.667 105.913 198.977 105.222 198.125 105.222Z" fill="#FFCF00"/>
<path d="M184.954 116.71H149.005C148.153 116.71 147.462 117.401 147.462 118.253V119.936C147.462 120.788 148.153 121.478 149.005 121.478H184.954C185.805 121.478 186.496 120.788 186.496 119.936V118.253C186.496 117.401 185.805 116.71 184.954 116.71Z" fill="#FFCF00"/>
<path d="M223.52 116.71H193.568C192.716 116.71 192.026 117.401 192.026 118.253V119.936C192.026 120.788 192.716 121.478 193.568 121.478H223.52C224.372 121.478 225.063 120.788 225.063 119.936V118.253C225.063 117.401 224.372 116.71 223.52 116.71Z" fill="#FFCF00"/>
<g opacity="0.5">
<path d="M220.902 93.7344H149.005C148.153 93.7344 147.462 94.425 147.462 95.2768V96.96C147.462 97.8119 148.153 98.5024 149.005 98.5024H220.902C221.754 98.5024 222.445 97.8119 222.445 96.96V95.2768C222.445 94.425 221.754 93.7344 220.902 93.7344Z" fill="white"/>
<path d="M198.125 105.222H149.005C148.153 105.222 147.462 105.913 147.462 106.765V108.448C147.462 109.3 148.153 109.99 149.005 109.99H198.125C198.977 109.99 199.667 109.3 199.667 108.448V106.765C199.667 105.913 198.977 105.222 198.125 105.222Z" fill="white"/>
<path d="M184.954 116.711H149.005C148.153 116.711 147.462 117.401 147.462 118.253V119.936C147.462 120.788 148.153 121.479 149.005 121.479H184.954C185.805 121.479 186.496 120.788 186.496 119.936V118.253C186.496 117.401 185.805 116.711 184.954 116.711Z" fill="white"/>
<path d="M223.52 116.711H193.568C192.716 116.711 192.025 117.401 192.025 118.253V119.936C192.025 120.788 192.716 121.479 193.568 121.479H223.52C224.372 121.479 225.062 120.788 225.062 119.936V118.253C225.062 117.401 224.372 116.711 223.52 116.711Z" fill="white"/>
</g>
<path d="M174.074 136.896H139.75C137.481 136.896 135.642 138.736 135.642 141.005V192.422C135.642 194.692 137.481 196.531 139.75 196.531H174.074C176.343 196.531 178.182 194.692 178.182 192.422V141.005C178.182 138.736 176.343 136.896 174.074 136.896Z" fill="#FFCF00"/>
<path opacity="0.4" d="M174.074 136.896H139.75C137.481 136.896 135.642 138.736 135.642 141.005V192.422C135.642 194.692 137.481 196.531 139.75 196.531H174.074C176.343 196.531 178.182 194.692 178.182 192.422V141.005C178.182 138.736 176.343 136.896 174.074 136.896Z" fill="black"/>
<path d="M172.499 143.117H141.318C140.901 143.117 140.563 143.455 140.563 143.872V145.005C140.563 145.422 140.901 145.76 141.318 145.76H172.499C172.916 145.76 173.254 145.422 173.254 145.005V143.872C173.254 143.455 172.916 143.117 172.499 143.117Z" fill="#FAFAFA"/>
<path d="M162.573 149.478H141.318C140.901 149.478 140.563 149.817 140.563 150.234V151.366C140.563 151.783 140.901 152.122 141.318 152.122H162.573C162.99 152.122 163.328 151.783 163.328 151.366V150.234C163.328 149.817 162.99 149.478 162.573 149.478Z" fill="#FAFAFA"/>
<path d="M172.499 155.846H141.318C140.901 155.846 140.563 156.185 140.563 156.602V157.734C140.563 158.151 140.901 158.49 141.318 158.49H172.499C172.916 158.49 173.254 158.151 173.254 157.734V156.602C173.254 156.185 172.916 155.846 172.499 155.846Z" fill="#FAFAFA"/>
<path d="M152.909 162.208H141.318C140.901 162.208 140.563 162.546 140.563 162.963V164.096C140.563 164.513 140.901 164.851 141.318 164.851H152.909C153.326 164.851 153.664 164.513 153.664 164.096V162.963C153.664 162.546 153.326 162.208 152.909 162.208Z" fill="#FAFAFA"/>
<path d="M169.126 162.208H157.536C157.119 162.208 156.781 162.546 156.781 162.963V164.096C156.781 164.513 157.119 164.851 157.536 164.851H169.126C169.543 164.851 169.882 164.513 169.882 164.096V162.963C169.882 162.546 169.543 162.208 169.126 162.208Z" fill="#FAFAFA"/>
<path d="M172.499 168.576H141.318C140.901 168.576 140.563 168.914 140.563 169.331V170.464C140.563 170.881 140.901 171.219 141.318 171.219H172.499C172.916 171.219 173.254 170.881 173.254 170.464V169.331C173.254 168.914 172.916 168.576 172.499 168.576Z" fill="#FAFAFA"/>
<path d="M172.499 174.938H141.318C140.901 174.938 140.563 175.276 140.563 175.693V176.826C140.563 177.243 140.901 177.581 141.318 177.581H172.499C172.916 177.581 173.254 177.243 173.254 176.826V175.693C173.254 175.276 172.916 174.938 172.499 174.938Z" fill="#FAFAFA"/>
<path d="M166.969 181.306H141.318C140.901 181.306 140.563 181.644 140.563 182.061V183.194C140.563 183.611 140.901 183.949 141.318 183.949H166.969C167.386 183.949 167.725 183.611 167.725 183.194V182.061C167.725 181.644 167.386 181.306 166.969 181.306Z" fill="#FAFAFA"/>
<path d="M153.286 187.667H141.318C140.901 187.667 140.563 188.005 140.563 188.422V189.555C140.563 189.972 140.901 190.31 141.318 190.31H153.286C153.703 190.31 154.041 189.972 154.041 189.555V188.422C154.041 188.005 153.703 187.667 153.286 187.667Z" fill="#FAFAFA"/>
<path d="M183.36 136.531H135.75L156.8 153.28L189.075 165.44V142.234C189.072 140.72 188.468 139.27 187.397 138.201C186.325 137.132 184.874 136.531 183.36 136.531Z" fill="#FFCF00"/>
<path opacity="0.4" d="M183.36 136.531H135.75L156.8 153.28L189.075 165.44V142.234C189.072 140.72 188.468 139.27 187.397 138.201C186.325 137.132 184.874 136.531 183.36 136.531Z" fill="black"/>
<path d="M181.28 145.158H146.445C145.922 145.158 145.498 145.583 145.498 146.106V147.872C145.498 148.395 145.922 148.819 146.445 148.819H181.28C181.803 148.819 182.227 148.395 182.227 147.872V146.106C182.227 145.583 181.803 145.158 181.28 145.158Z" fill="#FAFAFA"/>
<path d="M265.696 181.869V148.384C265.696 145.818 263.616 143.738 261.05 143.738H202.906C200.34 143.738 198.259 145.818 198.259 148.384V181.869C198.259 184.435 200.34 186.515 202.906 186.515H261.05C263.616 186.515 265.696 184.435 265.696 181.869Z" fill="#FFCF00"/>
<path d="M276.313 171.258V137.773C276.313 135.207 274.233 133.126 271.667 133.126H213.523C210.957 133.126 208.877 135.207 208.877 137.773V171.258C208.877 173.824 210.957 175.904 213.523 175.904H271.667C274.233 175.904 276.313 173.824 276.313 171.258Z" fill="#FFCF00"/>
<path opacity="0.5" d="M276.313 171.258V137.773C276.313 135.207 274.233 133.126 271.667 133.126H213.523C210.957 133.126 208.877 135.207 208.877 137.773V171.258C208.877 173.824 210.957 175.904 213.523 175.904H271.667C274.233 175.904 276.313 173.824 276.313 171.258Z" fill="white"/>
<path d="M270.413 159.782V139.168C270.413 138.026 269.488 137.101 268.346 137.101H249.344C248.203 137.101 247.277 138.026 247.277 139.168V159.782C247.277 160.924 248.203 161.85 249.344 161.85H268.346C269.488 161.85 270.413 160.924 270.413 159.782Z" fill="#FFCF00"/>
<path opacity="0.7" d="M270.413 159.782V139.168C270.413 138.026 269.488 137.101 268.346 137.101H249.344C248.203 137.101 247.277 138.026 247.277 139.168V159.782C247.277 160.924 248.203 161.85 249.344 161.85H268.346C269.488 161.85 270.413 160.924 270.413 159.782Z" fill="white"/>
<path d="M243.655 169.754V153.958C243.655 153.082 242.944 152.371 242.068 152.371H227.508C226.631 152.371 225.92 153.082 225.92 153.958V169.754C225.92 170.63 226.631 171.341 227.508 171.341H242.068C242.944 171.341 243.655 170.63 243.655 169.754Z" fill="#FFCF00"/>
<path opacity="0.3" d="M243.655 169.754V153.958C243.655 153.082 242.944 152.371 242.068 152.371H227.508C226.631 152.371 225.92 153.082 225.92 153.958V169.754C225.92 170.63 226.631 171.341 227.508 171.341H242.068C242.944 171.341 243.655 170.63 243.655 169.754Z" fill="white"/>
<path d="M234.784 69.6064V61.0752C234.784 58.4667 232.67 56.352 230.061 56.352L73.8178 56.352C71.2092 56.352 69.0946 58.4667 69.0946 61.0752V69.6064C69.0946 72.215 71.2092 74.3296 73.8178 74.3296L230.061 74.3296C232.67 74.3296 234.784 72.215 234.784 69.6064Z" fill="#FFCF00"/>
<path opacity="0.5" d="M234.784 69.6064V61.0752C234.784 58.4667 232.67 56.352 230.061 56.352L73.8178 56.352C71.2092 56.352 69.0946 58.4667 69.0946 61.0752V69.6064C69.0946 72.215 71.2092 74.3296 73.8178 74.3296L230.061 74.3296C232.67 74.3296 234.784 72.215 234.784 69.6064Z" fill="white"/>
<path d="M205.223 77.3376V71.1488H160.263V77.3376H205.223Z" fill="#FFCF00"/>
<path opacity="0.5" d="M205.223 77.3376V71.1488H160.263V77.3376H205.223Z" fill="white"/>
<path d="M250.906 43.0464V34.5152C250.906 31.9067 248.791 29.792 246.183 29.792L89.9394 29.792C87.3308 29.792 85.2162 31.9067 85.2162 34.5152V43.0464C85.2162 45.655 87.3308 47.7696 89.9394 47.7696L246.183 47.7696C248.791 47.7696 250.906 45.655 250.906 43.0464Z" fill="#FFCF00"/>
<path d="M83.4305 124.326C82.8673 125.606 82.2465 126.989 81.7025 128.339C81.1585 129.69 80.5953 131.078 80.1025 132.461C79.0914 135.156 78.2806 137.922 77.6769 140.736L77.4913 141.76L77.4273 142.144C77.4273 142.253 77.4273 142.394 77.3889 142.522C77.3646 143.145 77.3774 143.769 77.4273 144.39C77.5489 145.741 77.7665 147.187 78.0673 148.634C78.6049 151.533 79.2897 154.522 79.9873 157.466L76.7041 158.746C75.1736 155.956 73.8702 153.047 72.8065 150.048C72.2461 148.487 71.7928 146.89 71.4497 145.267C71.2575 144.369 71.1376 143.458 71.0913 142.541C71.0913 142.285 71.0913 142.042 71.0913 141.766C71.0913 141.491 71.0913 141.184 71.1361 141.005L71.2641 139.725C71.4553 138.076 71.7482 136.441 72.1409 134.829C72.4993 133.229 72.9601 131.674 73.4209 130.138C73.8817 128.602 74.4577 127.091 75.0657 125.606C75.3665 124.864 75.7057 124.128 76.0001 123.392C76.2945 122.656 76.6401 121.952 77.0497 121.165L83.4305 124.326Z" fill="#E4897B"/>
<path d="M79.8146 156.602L82.3106 159.04L76.8642 161.6C76.8642 161.6 75.5458 159.29 76.461 157.203L79.8146 156.602Z" fill="#E4897B"/>
<path d="M84.3266 162.669L79.725 164.55L76.8706 161.574L82.3106 159.04L84.3266 162.669Z" fill="#E4897B"/>
<path opacity="0.4" d="M177.542 160.045C168.487 159.028 159.936 155.349 152.971 149.474C146.006 143.598 140.94 135.789 138.412 127.034C135.885 118.28 136.009 108.972 138.771 100.288C141.532 91.6045 146.806 83.9344 153.926 78.2475C161.046 72.5607 169.692 69.1125 178.772 68.3388C187.851 67.5652 196.956 69.5008 204.936 73.9011C212.915 78.3013 219.411 84.9686 223.602 93.06C227.792 101.151 229.49 110.304 228.48 119.36C227.809 125.377 225.959 131.202 223.035 136.504C220.112 141.806 216.172 146.479 211.442 150.257C206.711 154.036 201.283 156.845 195.466 158.524C189.649 160.204 183.559 160.72 177.542 160.045Z" fill="#FAFAFA"/>
<path opacity="0.4" d="M211.066 77.9455L140.986 133.939C140.691 133.299 140.403 132.659 140.135 132.019C138.378 127.84 137.254 123.422 136.8 118.912L197.331 70.5471C202.301 72.2048 206.947 74.7077 211.066 77.9455Z" fill="#FAFAFA"/>
<path opacity="0.4" d="M227.238 102.477L161.35 155.117C155.091 151.854 149.667 147.194 145.498 141.498L217.44 84.0128C222.077 89.3356 225.43 95.6528 227.238 102.477Z" fill="#FAFAFA"/>
<path d="M130.81 96.6399L130.202 96.4351C131.255 93.3279 132.578 90.3191 134.157 87.4431L134.714 87.7503C133.156 90.5941 131.849 93.5686 130.81 96.6399ZM138.579 81.7023L138.061 81.3247C143.32 74.2129 150.204 68.4616 158.138 64.5503L158.426 65.1263C150.582 68.9972 143.778 74.6871 138.579 81.7215V81.7023ZM208.717 66.0031C206.625 64.8813 204.462 63.9 202.24 63.0655L202.47 62.4639C204.714 63.3179 206.899 64.3185 209.011 65.4591L208.717 66.0031Z" fill="#FFCF00"/>
<path opacity="0.3" d="M130.81 96.6399L130.202 96.4351C131.255 93.3279 132.578 90.3191 134.157 87.4431L134.714 87.7503C133.156 90.5941 131.849 93.5686 130.81 96.6399ZM138.579 81.7023L138.061 81.3247C143.32 74.2129 150.204 68.4616 158.138 64.5503L158.426 65.1263C150.582 68.9972 143.778 74.6871 138.579 81.7215V81.7023ZM208.717 66.0031C206.625 64.8813 204.462 63.9 202.24 63.0655L202.47 62.4639C204.714 63.3179 206.899 64.3185 209.011 65.4591L208.717 66.0031Z" fill="black"/>
<path d="M230.317 90.7136C224.39 78.4226 213.962 68.8834 201.193 64.0736C188.423 59.2639 174.293 59.5523 161.73 64.8793C149.168 70.2063 139.137 80.1631 133.718 92.6857C128.298 105.208 127.905 119.336 132.621 132.141C128.345 133.638 124.121 135.245 119.923 136.902C113.869 139.305 107.87 141.813 101.926 144.429C95.9871 147.059 90.0735 149.741 84.2175 152.544C81.2799 153.92 78.3807 155.373 75.4559 156.781C73.9344 157.435 72.5558 158.38 71.3983 159.565C70.7719 160.221 70.2203 160.944 69.7535 161.722C69.184 162.641 68.7527 163.64 68.4735 164.685C67.9919 166.568 68.2002 168.562 69.0606 170.305C69.921 172.048 71.3768 173.426 73.1647 174.189C74.1575 174.605 75.205 174.877 76.2751 174.995C77.1789 175.098 78.0913 175.098 78.9951 174.995C80.6375 174.796 82.2248 174.276 83.6671 173.466C86.5663 172 89.4847 170.586 92.3647 169.082C98.1247 166.144 103.885 163.078 109.574 159.968C115.264 156.858 120.96 153.6 126.515 150.259C130.355 147.936 134.233 145.562 138.035 143.078C145.335 154.603 156.789 162.877 170.023 166.186C183.258 169.495 197.258 167.586 209.123 160.854C220.988 154.123 229.808 143.084 233.756 130.026C237.704 116.968 236.477 102.892 230.329 90.7136H230.317ZM201.222 151.853C193.785 155.524 185.425 156.907 177.202 155.828C168.978 154.749 161.259 151.255 155.02 145.789C148.782 140.323 144.304 133.129 142.154 125.118C140.004 117.108 140.277 108.639 142.939 100.784C145.602 92.9282 150.534 86.0386 157.111 80.9859C163.689 75.9333 171.617 72.9445 179.894 72.3975C188.17 71.8506 196.423 73.77 203.608 77.913C210.794 82.0561 216.589 88.2368 220.262 95.6736C222.702 100.612 224.144 105.983 224.507 111.48C224.87 116.976 224.147 122.49 222.379 127.707C220.611 132.924 217.833 137.742 214.203 141.884C210.572 146.027 206.162 149.415 201.222 151.853Z" fill="#FFCF00"/>
<path opacity="0.3" d="M230.317 90.7136C224.39 78.4226 213.962 68.8834 201.193 64.0736C188.423 59.2639 174.293 59.5523 161.73 64.8793C149.168 70.2063 139.137 80.1631 133.718 92.6857C128.298 105.208 127.905 119.336 132.621 132.141C128.345 133.638 124.121 135.245 119.923 136.902C113.869 139.305 107.87 141.813 101.926 144.429C95.9871 147.059 90.0735 149.741 84.2175 152.544C81.2799 153.92 78.3807 155.373 75.4559 156.781C73.9344 157.435 72.5558 158.38 71.3983 159.565C70.7719 160.221 70.2203 160.944 69.7535 161.722C69.184 162.641 68.7527 163.64 68.4735 164.685C67.9919 166.568 68.2002 168.562 69.0606 170.305C69.921 172.048 71.3768 173.426 73.1647 174.189C74.1575 174.605 75.205 174.877 76.2751 174.995C77.1789 175.098 78.0913 175.098 78.9951 174.995C80.6375 174.796 82.2248 174.276 83.6671 173.466C86.5663 172 89.4847 170.586 92.3647 169.082C98.1247 166.144 103.885 163.078 109.574 159.968C115.264 156.858 120.96 153.6 126.515 150.259C130.355 147.936 134.233 145.562 138.035 143.078C145.335 154.603 156.789 162.877 170.023 166.186C183.258 169.495 197.258 167.586 209.123 160.854C220.988 154.123 229.808 143.084 233.756 130.026C237.704 116.968 236.477 102.892 230.329 90.7136H230.317ZM201.222 151.853C193.785 155.524 185.425 156.907 177.202 155.828C168.978 154.749 161.259 151.255 155.02 145.789C148.782 140.323 144.304 133.129 142.154 125.118C140.004 117.108 140.277 108.639 142.939 100.784C145.602 92.9282 150.534 86.0386 157.111 80.9859C163.689 75.9333 171.617 72.9445 179.894 72.3975C188.17 71.8506 196.423 73.77 203.608 77.913C210.794 82.0561 216.589 88.2368 220.262 95.6736C222.702 100.612 224.144 105.983 224.507 111.48C224.87 116.976 224.147 122.49 222.379 127.707C220.611 132.924 217.833 137.742 214.203 141.884C210.572 146.027 206.162 149.415 201.222 151.853Z" fill="black"/>
<path d="M101.12 101.472C101.12 101.85 101.319 102.157 101.568 102.157C101.818 102.157 102.016 101.85 102.016 101.472C102.016 101.094 101.818 100.787 101.568 100.787C101.319 100.787 101.12 101.12 101.12 101.472Z" fill="#263238"/>
<path d="M101.299 102.157C101.752 103.316 102.362 104.408 103.111 105.402C102.852 105.587 102.555 105.713 102.242 105.772C101.93 105.83 101.608 105.82 101.299 105.741V102.157Z" fill="#DE5753"/>
<path d="M99.7951 99.3664C99.7594 99.3664 99.7241 99.3584 99.692 99.3428C99.6599 99.3273 99.6316 99.3048 99.6095 99.2768C99.5761 99.2279 99.5628 99.1681 99.5723 99.1098C99.5819 99.0514 99.6135 98.9989 99.6607 98.9632C99.9425 98.7494 100.272 98.607 100.621 98.5479C100.969 98.4888 101.327 98.515 101.664 98.624C101.694 98.6322 101.722 98.6467 101.747 98.6665C101.771 98.6863 101.791 98.711 101.805 98.7389C101.819 98.7669 101.827 98.7975 101.829 98.8287C101.83 98.86 101.825 98.8913 101.814 98.9205C101.803 98.9498 101.786 98.9763 101.763 98.9985C101.741 99.0206 101.715 99.0379 101.685 99.0492C101.656 99.0604 101.625 99.0654 101.594 99.0638C101.562 99.0623 101.532 99.0541 101.504 99.04C101.237 98.958 100.953 98.9414 100.678 98.9915C100.403 99.0416 100.144 99.157 99.9231 99.328C99.8851 99.3532 99.8406 99.3665 99.7951 99.3664Z" fill="#263238"/>
<path d="M88.1923 104.32C88.8323 107.757 89.5363 114.061 87.1299 116.358C87.1299 116.358 88.0707 119.846 94.4643 119.846C101.504 119.846 97.8179 116.358 97.8179 116.358C93.9779 115.437 94.0867 112.595 94.7523 109.92L88.1923 104.32Z" fill="#E4897B"/>
<path d="M84.2562 118.17C85.0178 116.986 83.7378 114.112 83.7378 114.112C83.7378 114.112 95.053 111.264 99.6802 115.635C100.64 116.538 99.5778 117.869 99.5778 117.869L84.2562 118.17Z" fill="#FFCF00"/>
<path opacity="0.1" d="M84.2562 118.17C85.0178 116.986 83.7378 114.112 83.7378 114.112C83.7378 114.112 95.053 111.264 99.6802 115.635C100.64 116.538 99.5778 117.869 99.5778 117.869L84.2562 118.17Z" fill="black"/>
<path d="M65.536 248.749C64.9408 248.749 63.9872 247.757 63.7056 247.386C63.6935 247.368 63.687 247.346 63.687 247.325C63.687 247.303 63.6935 247.282 63.7056 247.264C63.7159 247.246 63.7309 247.231 63.7489 247.221C63.7669 247.211 63.7873 247.206 63.808 247.206C63.8784 247.206 65.4464 247.347 65.8752 247.904C65.9218 247.963 65.9551 248.031 65.9728 248.104C65.9905 248.177 65.9921 248.253 65.9776 248.326C65.972 248.422 65.937 248.513 65.8774 248.587C65.8178 248.662 65.7365 248.716 65.6448 248.742L65.536 248.749ZM64.0512 247.469C64.5184 248.006 65.2672 248.614 65.5872 248.538C65.5872 248.538 65.7152 248.506 65.7536 248.301C65.762 248.258 65.7606 248.214 65.7495 248.172C65.7384 248.13 65.7179 248.091 65.6896 248.058C65.2155 247.698 64.645 247.489 64.0512 247.456V247.469Z" fill="#FFCF00"/>
<path d="M64.1217 247.456C64.0068 247.468 63.891 247.468 63.7761 247.456C63.7559 247.454 63.7366 247.447 63.7206 247.434C63.7047 247.422 63.6928 247.405 63.6865 247.386C63.6775 247.368 63.6729 247.348 63.6729 247.328C63.6729 247.308 63.6775 247.288 63.6865 247.27C63.7313 247.232 64.6721 246.253 65.3825 246.253C65.4676 246.251 65.552 246.267 65.6303 246.3C65.7087 246.333 65.7791 246.383 65.8369 246.445C65.9007 246.498 65.9443 246.572 65.9606 246.653C65.9768 246.735 65.9649 246.819 65.9265 246.893C65.7409 247.251 64.7617 247.456 64.1217 247.456ZM64.0385 247.232C64.6785 247.232 65.6065 247.034 65.7601 246.752C65.7601 246.752 65.8049 246.669 65.7025 246.566C65.6653 246.526 65.6196 246.494 65.5688 246.473C65.5179 246.452 65.4631 246.442 65.4081 246.445C64.8835 246.565 64.4067 246.839 64.0385 247.232Z" fill="#FFCF00"/>
<path d="M107.77 263.277C107.285 263.273 106.801 263.229 106.323 263.142C106.3 263.138 106.278 263.125 106.263 263.106C106.248 263.088 106.24 263.064 106.24 263.04C106.237 263.018 106.24 262.995 106.249 262.975C106.258 262.954 106.273 262.937 106.291 262.925C106.362 262.886 108 261.946 108.787 262.163C108.86 262.18 108.929 262.211 108.99 262.255C109.05 262.299 109.101 262.355 109.139 262.419C109.19 262.49 109.216 262.575 109.216 262.662C109.216 262.749 109.19 262.834 109.139 262.906C108.954 263.194 108.371 263.277 107.77 263.277ZM106.688 262.976C107.559 263.104 108.749 263.098 108.967 262.79C108.999 262.752 109.024 262.682 108.967 262.547C108.918 262.468 108.84 262.41 108.749 262.387C108.25 262.259 107.258 262.682 106.688 262.976Z" fill="#FFCF00"/>
<path d="M106.349 263.149C106.328 263.155 106.306 263.155 106.285 263.149C106.267 263.137 106.254 263.121 106.246 263.101C106.237 263.082 106.236 263.06 106.24 263.04C106.284 262.374 106.539 261.739 106.97 261.229C107.057 261.154 107.159 261.098 107.27 261.066C107.38 261.034 107.496 261.026 107.61 261.043C107.917 261.043 108.007 261.229 108.026 261.35C108.109 261.882 106.989 262.899 106.419 263.155L106.349 263.149ZM107.495 261.229C107.354 261.228 107.217 261.278 107.111 261.37C106.749 261.774 106.525 262.282 106.471 262.822C107.047 262.47 107.815 261.677 107.751 261.357C107.751 261.357 107.751 261.248 107.533 261.229H107.495Z" fill="#FFCF00"/>
<path d="M101.178 263.033H105.882L106.349 252.147H101.645L101.178 263.033Z" fill="#E4897B"/>
<path d="M59.2896 244.346L63.2191 246.918L71.8975 239.59L67.9616 237.011L59.2896 244.346Z" fill="#E4897B"/>
<path d="M63.8654 246.675L59.7822 243.328C59.7101 243.269 59.6196 243.236 59.5262 243.236C59.4328 243.236 59.3424 243.269 59.2702 243.328L55.9038 245.971C55.8225 246.036 55.7568 246.118 55.7117 246.212C55.6665 246.305 55.6431 246.408 55.6431 246.512C55.6431 246.616 55.6665 246.719 55.7117 246.812C55.7568 246.906 55.8225 246.988 55.9038 247.053C57.3502 248.198 58.1118 248.685 59.9102 250.157C61.0174 251.059 63.7502 253.824 65.2926 255.072C66.835 256.32 68.2494 254.976 67.7374 254.33C65.4398 251.418 64.5374 248.928 64.275 247.386C64.2297 247.107 64.084 246.854 63.8654 246.675Z" fill="#263238"/>
<path d="M105.85 262.49H100.73C100.637 262.49 100.546 262.522 100.473 262.58C100.4 262.638 100.348 262.719 100.327 262.81L99.3988 266.989C99.3755 267.09 99.3755 267.195 99.3989 267.297C99.4223 267.398 99.4684 267.493 99.5338 267.573C99.5992 267.654 99.6821 267.719 99.7762 267.763C99.8704 267.807 99.9733 267.829 100.077 267.827C101.927 267.795 104.602 267.686 106.932 267.686C109.652 267.686 112.007 267.834 115.194 267.834C117.114 267.834 117.664 265.882 116.852 265.709C113.178 264.902 110.17 264.819 106.996 262.854C106.655 262.629 106.258 262.503 105.85 262.49Z" fill="#263238"/>
<path d="M77.8624 117.76C73.7856 119.68 71.4624 132.544 71.4624 132.544L81.4272 136.518C82.8858 132.957 84.0648 129.287 84.9536 125.542C86.3232 119.616 82.0352 115.776 77.8624 117.76Z" fill="#263238"/>
<path d="M83.1491 125.011C80.6851 127.507 79.5587 132.397 79.0659 135.578L81.4531 136.531C82.8702 133.071 84.0255 129.509 84.9091 125.875C84.6979 124.518 84.1731 123.974 83.1491 125.011Z" fill="#203048"/>
<path d="M105.05 117.67C105.05 117.67 110.055 123.328 105.331 158.31H80.1859C80.0131 154.47 82.4387 135.622 78.7139 117.434C81.4928 116.895 84.3042 116.54 87.1299 116.371C90.6894 116.16 94.2583 116.16 97.8179 116.371C100.258 116.617 102.676 117.051 105.05 117.67Z" fill="#263238"/>
<path d="M107.347 131.251L103.11 123.949C102.293 127.356 101.959 130.861 102.118 134.362C102.234 136.87 104.531 146.163 106.598 147.52C107.147 142.115 107.397 136.684 107.347 131.251Z" fill="#203048"/>
<path d="M107.936 122.669C108.576 125.779 109.216 128.966 109.901 132.09C110.586 135.213 111.296 138.349 112.122 141.376C112.333 142.125 112.531 142.893 112.762 143.61L112.934 144.16L113.018 144.435V144.403C112.973 144.346 112.922 144.339 112.96 144.403C113.223 144.69 113.559 144.901 113.933 145.011C114.538 145.236 115.161 145.41 115.795 145.53C118.821 146.009 121.885 146.208 124.947 146.125L125.555 149.606C124.698 149.882 123.898 150.08 123.053 150.278C122.208 150.477 121.376 150.643 120.525 150.771C118.764 151.064 116.978 151.184 115.194 151.13C114.202 151.103 113.215 150.974 112.25 150.746C111.022 150.477 109.868 149.942 108.87 149.178C108.219 148.651 107.681 147.998 107.29 147.258C107.187 147.066 107.098 146.848 107.014 146.662L106.899 146.362L106.662 145.722C106.336 144.909 106.067 144.109 105.773 143.309C104.691 140.109 103.789 136.877 102.995 133.651C102.202 130.426 101.517 127.206 100.947 123.898L107.936 122.669Z" fill="#E4897B"/>
<path d="M98.7713 121.101C97.4465 125.395 102.816 138.202 102.816 138.202L113.51 135.514C113.51 135.514 113.101 128.858 110.662 123.578C106.989 115.616 100.358 115.949 98.7713 121.101Z" fill="#263238"/>
<path d="M124.858 146.125L130.182 145.99L127.622 151.533C127.622 151.533 125.453 151.821 123.674 148.896L121.798 146.656L123.955 146.227C124.252 146.165 124.554 146.13 124.858 146.125Z" fill="#E4897B"/>
<path d="M133.543 147.021L130.496 151.616L127.623 151.533L130.183 145.99L133.543 147.021Z" fill="#E4897B"/>
<path d="M106.349 252.147L106.106 257.76H101.402L101.645 252.147H106.349Z" fill="#CE6F64"/>
<path d="M67.9619 237.011L71.8979 239.59L67.4179 243.366L63.4883 240.794L67.9619 237.011Z" fill="#CE6F64"/>
<path d="M88.4864 100.659C88.768 105.312 88.6976 108.058 91.0464 110.445C94.5792 114.048 100.333 111.917 101.446 107.245C102.451 103.059 101.824 96.1472 97.2672 94.2912C96.2617 93.8854 95.1696 93.7416 94.0934 93.8735C93.0172 94.0053 91.9921 94.4085 91.1143 95.045C90.2366 95.6816 89.535 96.5307 89.0753 97.5127C88.6156 98.4947 88.413 99.5774 88.4864 100.659Z" fill="#E4897B"/>
<path d="M83.0081 99.84C84.1665 104.083 86.8929 108.973 90.4193 109.286C94.7969 109.67 96.7745 105.146 97.3505 100.474C99.9745 98.6752 98.5985 96.6976 101.229 96.448C104.608 96.128 103.526 89.9456 99.0785 88.9536C99.0785 88.9536 100.57 91.7376 97.4401 90.3296C94.4638 88.9151 91.1572 88.3419 87.8785 88.672C87.8785 88.672 91.8721 90.6688 87.9681 91.5584C84.0641 92.448 82.8993 94.8544 84.6977 96.3072C84.6977 96.3136 82.2465 97.0496 83.0081 99.84Z" fill="#263238"/>
<path d="M94.6816 101.434C94.7676 102.59 95.2333 103.686 96.0064 104.55C97.0304 105.683 98.0992 104.979 98.2784 103.603C98.4448 102.368 98.1056 100.288 96.8512 99.6608C95.5968 99.0336 94.5984 100.038 94.6816 101.434Z" fill="#E4897B"/>
<path d="M96.4098 158.31C96.4098 158.31 100.992 191.494 97.3826 204.794C91.661 225.85 69.7858 243.622 69.7858 243.622L62.3682 238.758C62.3682 238.758 80.9986 223.75 83.277 206.118C85.325 190.291 80.1858 171.149 80.1858 158.304L96.4098 158.31Z" fill="#FFCF00"/>
<path opacity="0.1" d="M96.4098 158.31C96.4098 158.31 100.992 191.494 97.3826 204.794C91.661 225.85 69.7858 243.622 69.7858 243.622L62.3682 238.758C62.3682 238.758 80.9986 223.75 83.277 206.118C85.325 190.291 80.1858 171.149 80.1858 158.304L96.4098 158.31Z" fill="black"/>
<path d="M98.3043 177.28C97.0844 175.882 95.7414 174.597 94.2915 173.44C95.0723 184.211 95.7123 200.166 95.0019 211.501C95.9571 209.328 96.7528 207.088 97.3827 204.8C99.1427 198.304 98.9571 187.085 98.3043 177.28Z" fill="#FFCF00"/>
<path opacity="0.3" d="M98.3043 177.28C97.0844 175.882 95.7414 174.597 94.2915 173.44C95.0723 184.211 95.7123 200.166 95.0019 211.501C95.9571 209.328 96.7528 207.088 97.3827 204.8C99.1427 198.304 98.9571 187.085 98.3043 177.28Z" fill="black"/>
<path d="M72.7743 241.965C72.8063 241.965 69.9007 243.885 69.9007 243.885L61.7983 238.573L64.3583 236.454L72.7743 241.965Z" fill="#FFCF00"/>
<path opacity="0.3" d="M72.7743 241.965C72.8063 241.965 69.9007 243.885 69.9007 243.885L61.7983 238.573L64.3583 236.454L72.7743 241.965Z" fill="black"/>
<path d="M105.331 158.31C105.331 158.31 112.41 188.326 112.909 202.669C113.472 218.746 107.859 256.672 107.859 256.672H99.8915C99.8915 256.672 98.9123 218.451 98.5603 203.808C98.1699 187.84 88.8003 158.31 88.8003 158.31H105.331Z" fill="#FFCF00"/>
<path opacity="0.1" d="M105.331 158.31C105.331 158.31 112.41 188.326 112.909 202.669C113.472 218.746 107.859 256.672 107.859 256.672H99.8915C99.8915 256.672 98.9123 218.451 98.5603 203.808C98.1699 187.84 88.8003 158.31 88.8003 158.31H105.331Z" fill="black"/>
<path d="M109.389 253.504C109.427 253.504 108.941 256.806 108.941 256.806H99.2512L98.9888 253.856L109.389 253.504Z" fill="#FFCF00"/>
<path opacity="0.3" d="M109.389 253.504C109.427 253.504 108.941 256.806 108.941 256.806H99.2512L98.9888 253.856L109.389 253.504Z" fill="black"/>
<path d="M227.839 129.466C228.383 129.978 228.812 130.413 229.26 130.899C229.708 131.386 230.131 131.859 230.54 132.352C231.372 133.331 232.153 134.362 232.908 135.398C234.417 137.478 235.758 139.674 236.921 141.965L237.158 142.432C237.273 142.658 237.37 142.894 237.446 143.136C237.6 143.604 237.695 144.09 237.727 144.582C237.769 145.45 237.65 146.318 237.375 147.142C236.908 148.512 236.213 149.792 235.321 150.931C233.713 152.996 231.816 154.82 229.689 156.346L228.095 154.515C228.844 153.638 229.625 152.698 230.323 151.757C231.032 150.845 231.674 149.883 232.243 148.877C232.774 147.999 233.167 147.045 233.407 146.048C233.49 145.691 233.505 145.322 233.452 144.96C233.429 144.838 233.391 144.72 233.337 144.608C233.313 144.559 233.285 144.512 233.254 144.467L233.049 144.122C231.815 142.109 230.475 140.163 229.036 138.291C228.326 137.35 227.564 136.448 226.796 135.558C226.419 135.11 226.028 134.675 225.638 134.24C225.247 133.805 224.825 133.37 224.486 133.03L227.839 129.466Z" fill="#E4897B"/>
<path d="M228.71 153.978L223.93 153.197L226.432 157.382C226.432 157.382 229.51 157.274 230.387 155.462L228.71 153.978Z" fill="#E4897B"/>
<path d="M220.396 155.13L222.675 158.528L226.432 157.382L223.929 153.197L220.396 155.13Z" fill="#E4897B"/>
<path d="M228.48 263.219C228.155 263.247 227.83 263.159 227.565 262.97C227.484 262.894 227.425 262.799 227.393 262.693C227.36 262.588 227.355 262.476 227.379 262.368C227.384 262.299 227.407 262.233 227.446 262.177C227.486 262.12 227.54 262.076 227.603 262.048C228.16 261.798 229.619 262.733 229.785 262.842C229.804 262.853 229.819 262.871 229.827 262.892C229.835 262.912 229.836 262.935 229.83 262.957C229.828 262.979 229.818 262.999 229.803 263.015C229.788 263.032 229.769 263.042 229.747 263.046C229.332 263.152 228.907 263.21 228.48 263.219ZM227.84 262.227C227.793 262.22 227.746 262.22 227.699 262.227C227.671 262.24 227.647 262.261 227.63 262.287C227.613 262.313 227.604 262.343 227.603 262.374C227.586 262.446 227.588 262.52 227.608 262.591C227.628 262.662 227.666 262.726 227.718 262.778C227.961 262.995 228.589 263.027 229.427 262.861C228.947 262.544 228.407 262.328 227.84 262.227Z" fill="#FFCF00"/>
<path d="M229.76 263.04H229.702C229.248 262.778 228.371 261.76 228.48 261.203C228.501 261.116 228.549 261.037 228.619 260.979C228.688 260.921 228.774 260.888 228.864 260.883C228.95 260.871 229.039 260.878 229.122 260.905C229.205 260.931 229.281 260.977 229.344 261.037C229.869 261.498 229.875 262.88 229.875 262.957C229.874 262.976 229.868 262.995 229.858 263.012C229.848 263.029 229.834 263.043 229.818 263.053L229.76 263.04ZM228.941 261.12H228.89C228.749 261.12 228.717 261.197 228.704 261.254C228.64 261.581 229.184 262.362 229.638 262.726C229.65 262.19 229.495 261.662 229.197 261.216C229.158 261.18 229.113 261.153 229.063 261.137C229.014 261.12 228.961 261.114 228.909 261.12H228.941Z" fill="#FFCF00"/>
<path d="M206.669 263.219C206.26 263.258 205.851 263.154 205.511 262.925C205.434 262.857 205.375 262.771 205.338 262.675C205.301 262.579 205.288 262.476 205.299 262.374C205.304 262.312 205.323 262.252 205.357 262.199C205.39 262.147 205.437 262.103 205.491 262.074C206.087 261.741 207.994 262.714 208.211 262.835C208.231 262.848 208.247 262.866 208.258 262.888C208.268 262.909 208.272 262.933 208.269 262.957C208.265 262.979 208.255 263 208.239 263.016C208.223 263.032 208.202 263.043 208.179 263.046C207.683 263.152 207.177 263.21 206.669 263.219ZM205.818 262.227C205.745 262.222 205.672 262.238 205.607 262.272C205.584 262.283 205.564 262.3 205.551 262.322C205.537 262.343 205.53 262.368 205.53 262.394C205.52 262.46 205.527 262.528 205.549 262.592C205.571 262.655 205.609 262.712 205.658 262.758C205.952 263.021 206.739 263.066 207.802 262.886C207.182 262.556 206.512 262.333 205.818 262.227Z" fill="#FFCF00"/>
<path d="M208.16 263.04H208.109C207.539 262.784 206.406 261.76 206.496 261.203C206.496 261.075 206.611 260.915 206.925 260.883C207.039 260.871 207.155 260.882 207.265 260.916C207.375 260.95 207.477 261.007 207.565 261.082C208.166 261.581 208.281 262.874 208.281 262.931C208.284 262.951 208.281 262.971 208.273 262.989C208.265 263.007 208.253 263.022 208.237 263.034C208.212 263.044 208.185 263.046 208.16 263.04ZM207.014 261.12H206.944C206.739 261.12 206.726 261.222 206.72 261.248C206.669 261.574 207.437 262.387 208 262.739C207.944 262.192 207.721 261.676 207.36 261.261C207.263 261.178 207.141 261.129 207.014 261.12Z" fill="#FFCF00"/>
<path d="M215.724 114.752C215.539 117.645 215.04 123.52 217.26 125.146C217.26 125.146 216.857 128.109 211.616 128.8C205.856 129.549 208.486 126.298 208.486 126.298C211.539 125.133 211.148 122.81 210.316 120.685L215.724 114.752Z" fill="#E4897B"/>
<path d="M203.801 109.638C203.77 109.639 203.738 109.632 203.709 109.618C203.681 109.605 203.655 109.586 203.635 109.562C203.452 109.345 203.22 109.174 202.959 109.062C202.698 108.951 202.414 108.903 202.131 108.922C202.101 108.927 202.07 108.926 202.04 108.92C202.011 108.913 201.983 108.9 201.958 108.882C201.934 108.864 201.913 108.841 201.898 108.815C201.882 108.789 201.872 108.76 201.868 108.73C201.861 108.669 201.878 108.609 201.915 108.561C201.952 108.513 202.007 108.482 202.067 108.474C202.428 108.443 202.791 108.501 203.126 108.641C203.46 108.781 203.756 109.001 203.987 109.28C204.014 109.313 204.032 109.354 204.038 109.397C204.044 109.44 204.037 109.484 204.019 109.523C204.001 109.563 203.972 109.596 203.936 109.62C203.9 109.644 203.857 109.657 203.814 109.658L203.801 109.638Z" fill="#263238"/>
<path d="M202.803 112.474C202.576 113.392 202.225 114.274 201.76 115.098C201.973 115.213 202.21 115.279 202.452 115.292C202.694 115.306 202.936 115.265 203.161 115.174L202.803 112.474Z" fill="#DE5753"/>
<path d="M203.059 111.77C203.11 112.154 202.95 112.486 202.701 112.525C202.451 112.563 202.201 112.269 202.157 111.885C202.112 111.501 202.265 111.168 202.515 111.136C202.765 111.104 203.014 111.36 203.059 111.77Z" fill="#263238"/>
<path d="M202.63 111.142L201.677 110.995C201.677 110.995 202.24 111.654 202.63 111.142Z" fill="#263238"/>
<path d="M213.433 262.938H208.633L208.313 251.834H213.113L213.433 262.938Z" fill="#E4897B"/>
<path d="M235.225 262.938H230.425L228.883 251.834H233.683L235.225 262.938Z" fill="#E4897B"/>
<path d="M230.131 262.4H235.52C235.612 262.399 235.701 262.432 235.77 262.492C235.84 262.552 235.885 262.635 235.897 262.726L236.537 266.995C236.549 267.103 236.538 267.212 236.505 267.315C236.471 267.418 236.417 267.513 236.344 267.593C236.272 267.673 236.183 267.737 236.084 267.781C235.985 267.825 235.878 267.847 235.769 267.846C233.894 267.814 232.985 267.706 230.617 267.706C229.158 267.706 227.027 267.853 225.017 267.853C223.008 267.853 222.899 265.862 223.737 265.683C227.494 264.877 228.089 263.763 229.35 262.694C229.57 262.512 229.845 262.408 230.131 262.4Z" fill="#263238"/>
<path d="M208.474 262.4H213.856C213.949 262.399 214.039 262.431 214.109 262.491C214.18 262.551 214.226 262.635 214.24 262.726L214.88 266.995C214.892 267.103 214.881 267.212 214.847 267.315C214.814 267.418 214.759 267.513 214.687 267.593C214.614 267.673 214.526 267.737 214.427 267.781C214.328 267.825 214.22 267.847 214.112 267.846C212.237 267.814 211.328 267.706 208.96 267.706C207.501 267.706 204.48 267.853 202.471 267.853C200.461 267.853 200.352 265.862 201.191 265.683C204.947 264.877 206.426 263.763 207.693 262.694C207.913 262.512 208.188 262.408 208.474 262.4Z" fill="#263238"/>
<path d="M208.313 251.834L208.48 257.562H213.28L213.113 251.834H208.313Z" fill="#CE6F64"/>
<path d="M233.683 251.834H228.883L229.683 257.562H234.476L233.683 251.834Z" fill="#CE6F64"/>
<path d="M215.788 108.762C216.115 113.51 216.351 115.514 214.291 118.246C211.187 122.349 205.286 121.715 203.545 117.158C201.977 113.056 201.708 105.984 206.073 103.501C207.033 102.95 208.118 102.655 209.225 102.641C210.331 102.628 211.423 102.898 212.396 103.425C213.37 103.952 214.192 104.718 214.786 105.652C215.379 106.586 215.724 107.657 215.788 108.762Z" fill="#E4897B"/>
<path d="M218.554 113.171C221.216 114.656 223.194 110.995 223.194 110.995C223.194 110.995 218.419 111.514 218.848 108.672C219.411 104.902 216.711 100.32 209.939 100.909C209.562 100.941 209.203 100.986 208.851 101.043C208.143 100.707 207.341 100.62 206.577 100.797C205.812 100.974 205.13 101.403 204.64 102.016C202.72 102.176 200.128 104.467 201.888 107.494C202.012 107.147 202.203 106.827 202.451 106.554C202.599 108.326 204.147 111.142 206.08 111.328C206.496 113.754 204.883 116.563 205.44 119.098C206.266 122.752 212.429 123.578 212.429 123.578C212.216 123.121 212.137 122.614 212.201 122.115C212.264 121.615 212.468 121.144 212.787 120.755C216.973 122.675 219.731 120.8 219.731 120.8C216.877 119.738 217.741 117.843 217.741 117.843C218.727 118.281 219.843 118.319 220.857 117.95C221.87 117.582 222.701 116.834 223.175 115.866C222.226 115.911 221.286 115.68 220.466 115.202C219.646 114.724 218.982 114.019 218.554 113.171Z" fill="#263238"/>
<path d="M207.75 112.058C207.762 112.513 207.683 112.967 207.518 113.392C207.353 113.817 207.106 114.205 206.79 114.534C205.945 115.411 204.909 114.797 204.627 113.677C204.377 112.666 204.518 110.995 205.619 110.534C205.861 110.439 206.124 110.406 206.382 110.438C206.64 110.47 206.886 110.566 207.098 110.717C207.31 110.869 207.481 111.071 207.594 111.305C207.708 111.539 207.762 111.798 207.75 112.058Z" fill="#E4897B"/>
<path d="M211.737 156.301C211.737 156.301 212.953 187.891 215.846 206.438C218.176 221.427 228.525 256.448 228.525 256.448H235.065C235.065 256.448 229.67 222.624 228.486 207.808C225.491 170.31 233.267 162.259 225.926 154.451L211.737 156.301Z" fill="#263238"/>
<path d="M217.203 166.291C217.203 166.291 214.246 165.779 212.518 171.411C213.158 182.08 214.252 196.237 215.846 206.438C216.198 208.71 216.736 211.45 217.395 214.451C216.147 196.429 217.203 166.291 217.203 166.291Z" fill="#161F33"/>
<path d="M206.637 156.966C206.637 156.966 201.248 191.917 201.562 206.541C201.888 221.754 207.462 256.461 207.462 256.461H213.946C213.946 256.461 212.922 222.656 213.491 207.718C214.131 191.43 220.781 155.13 220.781 155.13L206.637 156.966Z" fill="#263238"/>
<path d="M236.013 256.755H227.315L226.637 253.837L235.949 253.901L236.013 256.755Z" fill="#FFCF00"/>
<path opacity="0.2" d="M236.013 256.755H227.315L226.637 253.837L235.949 253.901L236.013 256.755Z" fill="black"/>
<path d="M225.6 125.152C228.103 125.395 231.904 132.506 231.904 132.506L225.587 137.35C225.587 137.35 220.359 132.762 220.979 130.182C221.626 127.501 223.2 124.928 225.6 125.152Z" fill="#FFCF00"/>
<path opacity="0.1" d="M225.6 125.152C228.103 125.395 231.904 132.506 231.904 132.506L225.587 137.35C225.587 137.35 220.359 132.762 220.979 130.182C221.626 127.501 223.2 124.928 225.6 125.152Z" fill="black"/>
<path d="M223.712 128.211C223.074 128.039 222.413 127.966 221.753 127.994C221.417 128.693 221.158 129.427 220.979 130.182C220.339 132.742 225.587 137.35 225.587 137.35L226.054 136.992L223.712 128.211Z" fill="#FFCF00"/>
<path opacity="0.3" d="M223.712 128.211C223.074 128.039 222.413 127.966 221.753 127.994C221.417 128.693 221.158 129.427 220.979 130.182C220.339 132.742 225.587 137.35 225.587 137.35L226.054 136.992L223.712 128.211Z" fill="black"/>
<path d="M204.493 135.04C202.669 139.654 200.749 144.346 199.219 148.973C199.117 149.267 199.034 149.549 198.944 149.837L198.726 150.547C198.667 150.756 198.667 150.978 198.726 151.187C199.088 151.987 199.661 152.673 200.384 153.171C202.298 154.544 204.382 155.661 206.586 156.493L206.01 158.848C203.299 158.491 200.678 157.636 198.278 156.326C196.802 155.537 195.599 154.319 194.829 152.832C194.387 151.882 194.233 150.822 194.387 149.786C194.402 149.659 194.423 149.533 194.451 149.408L194.515 149.139L194.624 148.653C194.701 148.326 194.778 148.013 194.861 147.693C195.501 145.133 196.32 142.701 197.184 140.288C198.048 137.875 198.95 135.494 199.968 133.12L204.493 135.04Z" fill="#E4897B"/>
<path d="M200.608 128.563C200.608 128.563 198.445 129.658 206.637 156.966L225.952 154.445C224.595 146.624 223.955 141.779 225.6 125.152C222.83 124.954 220.05 124.954 217.28 125.152C214.331 125.323 211.399 125.708 208.506 126.304C204.8 127.13 200.608 128.563 200.608 128.563Z" fill="#FFCF00"/>
<path opacity="0.1" d="M200.608 128.563C200.608 128.563 198.445 129.658 206.637 156.966L225.952 154.445C224.595 146.624 223.955 141.779 225.6 125.152C222.83 124.954 220.05 124.954 217.28 125.152C214.331 125.323 211.399 125.708 208.506 126.304C204.8 127.13 200.608 128.563 200.608 128.563Z" fill="black"/>
<path d="M226.093 153.274L227.2 154.88C227.283 155.008 227.143 155.162 226.925 155.194L206.669 157.843C206.496 157.843 206.336 157.798 206.311 157.69L205.914 155.981C205.882 155.866 206.023 155.744 206.215 155.718L225.773 153.158C225.832 153.149 225.892 153.155 225.948 153.175C226.004 153.195 226.054 153.229 226.093 153.274Z" fill="#FFCF00"/>
<path opacity="0.2" d="M226.093 153.274L227.2 154.88C227.283 155.008 227.143 155.162 226.925 155.194L206.669 157.843C206.496 157.843 206.336 157.798 206.311 157.69L205.914 155.981C205.882 155.866 206.023 155.744 206.215 155.718L225.773 153.158C225.832 153.149 225.892 153.155 225.948 153.175C226.004 153.195 226.054 153.229 226.093 153.274Z" fill="black"/>
<path d="M223.751 155.802L224.275 155.731C224.378 155.731 224.448 155.654 224.435 155.59L223.898 153.376C223.877 153.338 223.845 153.309 223.805 153.292C223.765 153.276 223.721 153.274 223.68 153.286L223.155 153.35C223.047 153.35 222.976 153.427 222.995 153.498L223.533 155.706C223.546 155.776 223.648 155.814 223.751 155.802Z" fill="#263238"/>
<path d="M211.053 157.44L211.577 157.37C211.68 157.37 211.757 157.293 211.737 157.229L211.2 155.014C211.179 154.977 211.146 154.948 211.107 154.93C211.068 154.913 211.024 154.909 210.982 154.918L210.457 154.989C210.355 154.989 210.278 155.066 210.297 155.13L210.835 157.344C210.848 157.44 210.95 157.478 211.053 157.44Z" fill="#263238"/>
<path d="M201.51 137.83C202.041 140.301 202.79 143.43 203.884 147.392L204.121 137.35L201.51 137.83Z" fill="#FFCF00"/>
<path opacity="0.3" d="M201.51 137.83C202.041 140.301 202.79 143.43 203.884 147.392L204.121 137.35L201.51 137.83Z" fill="black"/>
<path d="M200.608 128.563C198.208 129.53 196.128 137.741 196.128 137.741L204.384 141.76C204.384 141.76 208.371 131.718 206.586 129.76C204.8 127.802 203.373 127.456 200.608 128.563Z" fill="#FFCF00"/>
<path opacity="0.1" d="M200.608 128.563C198.208 129.53 196.128 137.741 196.128 137.741L204.384 141.76C204.384 141.76 208.371 131.718 206.586 129.76C204.8 127.802 203.373 127.456 200.608 128.563Z" fill="black"/>
<path d="M215.053 256.755H206.355L205.677 253.837L215.36 253.901L215.053 256.755Z" fill="#FFCF00"/>
<path opacity="0.2" d="M215.053 256.755H206.355L205.677 253.837L215.36 253.901L215.053 256.755Z" fill="black"/>
<path d="M206.72 155.699L206.023 155.411C205.851 155.341 205.664 155.318 205.481 155.344C205.298 155.37 205.124 155.444 204.979 155.558C204.833 155.673 204.72 155.823 204.652 155.995C204.584 156.167 204.562 156.355 204.589 156.538L205.095 159.872C205.119 160.039 205.18 160.198 205.273 160.339C205.367 160.479 205.49 160.597 205.635 160.684C205.779 160.771 205.941 160.825 206.109 160.842C206.277 160.858 206.446 160.838 206.605 160.781C206.859 160.689 207.096 160.557 207.309 160.39C207.54 160.198 207.724 159.955 207.844 159.679C207.964 159.403 208.017 159.103 208 158.803L207.93 157.421C207.918 157.047 207.797 156.685 207.582 156.38C207.367 156.074 207.068 155.837 206.72 155.699Z" fill="#E4897B"/>
</svg>
