<svg width="14" height="12" viewBox="0 0 14 12" fill="none" xmlns="http://www.w3.org/2000/svg">
<path d="M4.40273 11.6879C9.68576 11.6879 12.5754 7.31092 12.5754 3.51522C12.5754 3.39092 12.5754 3.26716 12.567 3.14395C13.1291 2.73732 13.6144 2.23389 14 1.65716C13.4758 1.88944 12.9196 2.04175 12.3502 2.10907C12.9497 1.75021 13.3987 1.18534 13.613 0.520341C13.0492 0.854891 12.4323 1.0907 11.7891 1.21755C11.246 0.640024 10.4875 0.312145 9.69478 0.312145C8.11754 0.312145 6.81972 1.60999 6.81972 3.18718C6.81972 3.40598 6.84471 3.6241 6.89415 3.83722C4.58585 3.72153 2.4322 2.62969 0.974394 0.836188C0.216316 2.1412 0.608562 3.83241 1.86367 4.67049C1.40662 4.65696 0.959383 4.53364 0.56 4.31098V4.34737C0.560383 5.70947 1.52925 6.89338 2.86439 7.16307C2.44155 7.27838 1.99779 7.29522 1.56745 7.21234C1.9428 8.37951 3.02518 9.18404 4.25097 9.20707C3.23405 10.0062 1.97714 10.4404 0.683758 10.4391C0.455219 10.4386 0.226898 10.4248 0 10.3976C1.31343 11.2405 2.84211 11.6877 4.40273 11.6856" fill="#1DA1F2"/>
</svg>
