<svg width="22" height="22" viewBox="0 0 22 22" fill="none" xmlns="http://www.w3.org/2000/svg">
<path d="M11 0C10.9947 0 10.9947 0 10.9894 0C10.9894 0 10.9894 0 10.9841 0C10.9788 0 10.9736 0 10.9736 0C4.90769 0.0158654 0 4.93413 0 11C0 17.0659 4.90769 21.9841 10.9736 22C10.9788 22 10.9841 22 10.9841 22H10.9894C10.9947 22 10.9947 22 11 22C17.0764 22 22 17.0764 22 11C22 4.92356 17.0764 0 11 0ZM11.4389 6.58413C12.6077 6.5524 13.7394 6.39904 14.8341 6.13462C15.162 7.43029 15.3683 8.92692 15.4 10.5663H11.4389V6.58413ZM11.4389 5.70096V0.951923C12.6236 1.27981 13.8293 2.86106 14.5909 5.28846C13.5755 5.53173 12.5231 5.66923 11.4389 5.70096ZM10.5611 0.941346V5.70625C9.46635 5.67452 8.40337 5.53173 7.38269 5.28317C8.15481 2.8399 9.36587 1.24808 10.5611 0.941346ZM10.5611 6.58413V10.5611H6.57356C6.60529 8.92163 6.81154 7.425 7.13942 6.12933C8.23942 6.39375 9.38702 6.5524 10.5611 6.58413ZM5.6851 10.5611H0.89375C0.988942 8.2976 1.8351 6.22452 3.18365 4.5851C4.16202 5.12452 5.20385 5.56875 6.29327 5.89663C5.93365 7.29808 5.72212 8.87933 5.6851 10.5611ZM5.6851 11.4389C5.71683 13.1154 5.92837 14.7019 6.28798 16.1034C5.19856 16.4365 4.16202 16.8755 3.17837 17.4149C1.82981 15.7755 0.988943 13.7024 0.888462 11.4389H5.6851ZM6.57356 11.4389H10.5611V15.4106C9.38702 15.4423 8.23942 15.601 7.13942 15.8707C6.81154 14.575 6.60529 13.0784 6.57356 11.4389ZM10.5611 16.2938V21.0639C9.36587 20.7519 8.15481 19.1654 7.38269 16.7221C8.40337 16.4683 9.46635 16.3255 10.5611 16.2938ZM11.4389 21.0481V16.2885C12.5231 16.3202 13.5755 16.463 14.5962 16.7062C13.8293 19.1389 12.6288 20.7202 11.4389 21.0481ZM11.4389 15.4106V11.4389H15.4C15.3683 13.0731 15.162 14.5697 14.8341 15.8654C13.7394 15.601 12.6077 15.4423 11.4389 15.4106ZM16.2832 11.4389H21.1063C21.0111 13.7024 20.1649 15.7702 18.8163 17.4149C17.8274 16.8702 16.7803 16.426 15.6803 16.0928C16.0399 14.6913 16.2514 13.1154 16.2832 11.4389ZM16.2832 10.5611C16.2514 8.88461 16.0399 7.30337 15.6856 5.90192C16.7856 5.56875 17.8327 5.12452 18.8163 4.5851C20.1649 6.22452 21.0111 8.2976 21.1063 10.5663H16.2832V10.5611ZM18.2135 3.90817C17.3356 4.37356 16.4154 4.75962 15.4476 5.05048C14.9346 3.39519 14.2101 2.04663 13.3587 1.15817C15.2308 1.60769 16.9019 2.58077 18.2135 3.90817ZM8.60962 1.16875C7.75817 2.05192 7.03894 3.40048 6.53125 5.04519C5.57404 4.75433 4.65913 4.37356 3.79183 3.90817C5.0875 2.58606 6.74808 1.61827 8.60962 1.16875ZM3.78654 18.0865C4.65385 17.6212 5.57404 17.2404 6.52596 16.9495C7.03894 18.5995 7.75817 19.9428 8.60962 20.8312C6.74808 20.3817 5.0875 19.4139 3.78654 18.0865ZM13.3587 20.8418C14.2154 19.9534 14.9346 18.6048 15.4529 16.9442C16.4207 17.2351 17.3409 17.6212 18.2188 18.0865C16.9072 19.4192 15.2308 20.3923 13.3587 20.8418Z" fill="black"/>
</svg>
