<svg width="14" height="14" viewBox="0 0 14 14" fill="none" xmlns="http://www.w3.org/2000/svg">
<path d="M7 0.355469C3.33047 0.355469 0.355469 3.33047 0.355469 7C0.355469 8.34258 0.754688 9.59492 1.44102 10.6395L0.585156 13.5379L3.5957 12.7039C4.59102 13.3 5.75586 13.6418 7 13.6418C10.6695 13.6418 13.6445 10.6668 13.6445 6.99727C13.6445 3.33047 10.6695 0.355469 7 0.355469Z" fill="#25D366"/>
<path d="M10.6504 8.82383C10.6422 8.73633 10.5902 8.65977 10.5109 8.62422C9.97497 8.37812 9.4363 8.13203 8.90036 7.88594C8.84021 7.85859 8.76638 7.87227 8.72263 7.92422L7.99529 8.74453C7.93786 8.81016 7.84763 8.83203 7.76833 8.79922C7.39099 8.64336 6.8824 8.38086 6.36833 7.93789C5.7531 7.41016 5.39216 6.84414 5.18982 6.475C5.29099 6.40664 5.56716 6.20156 5.69021 5.82148C5.69021 5.81875 5.69294 5.81602 5.69294 5.81602C5.76951 5.58086 5.7531 5.32656 5.66833 5.09414C5.52341 4.70859 5.23357 3.96211 5.12146 3.84727C5.10232 3.82812 5.08044 3.80898 5.08044 3.80898C4.99841 3.73516 4.89177 3.69414 4.77966 3.68867C4.74138 3.68594 4.70036 3.68594 4.65661 3.68594C4.53083 3.6832 4.41872 3.6832 4.33669 3.69414C4.10427 3.72695 3.93474 3.88281 3.8281 4.01406C3.69958 4.16992 3.54646 4.40234 3.44529 4.70859C3.43708 4.73594 3.42888 4.76055 3.42068 4.78789C3.30857 5.17617 3.33044 5.5918 3.46443 5.97461C3.59021 6.33281 3.77341 6.75938 4.04958 7.21055C4.51716 7.97891 5.02576 8.45469 5.37029 8.76914C5.75857 9.12734 6.23982 9.56758 7.00271 9.93398C7.70818 10.273 8.34802 10.3988 8.77732 10.4508C8.95232 10.4672 9.27497 10.4699 9.64412 10.3305C9.81365 10.2648 9.95583 10.1855 10.0707 10.1008C10.3742 9.88477 10.5875 9.55938 10.6422 9.19297C10.6422 9.19023 10.6422 9.1875 10.6422 9.18477C10.6613 9.04531 10.6586 8.925 10.6504 8.82383Z" fill="white"/>
</svg>
